<svg id="SvgjsSvg1326" width="1138.5" height="1065" xmlns="http://www.w3.org/2000/svg" version="1.1" xmlns:xlink="http://www.w3.org/1999/xlink" xmlns:svgjs="http://svgjs.com/svgjs"><defs id="SvgjsDefs1327"><marker id="SvgjsMarker1354" markerWidth="14" markerHeight="10" refX="10" refY="5" viewBox="0 0 14 10" orient="auto" markerUnits="userSpaceOnUse" stroke-dasharray="0,0"><path id="SvgjsPath1355" d="M0,0 L14,5 L0,10 L0,0" fill="#323232" stroke="#323232" stroke-width="1"></path></marker><marker id="SvgjsMarker1358" markerWidth="14" markerHeight="10" refX="10" refY="5" viewBox="0 0 14 10" orient="auto" markerUnits="userSpaceOnUse" stroke-dasharray="0,0"><path id="SvgjsPath1359" d="M0,0 L14,5 L0,10 L0,0" fill="#323232" stroke="#323232" stroke-width="1"></path></marker><marker id="SvgjsMarker1362" markerWidth="14" markerHeight="10" refX="10" refY="5" viewBox="0 0 14 10" orient="auto" markerUnits="userSpaceOnUse" stroke-dasharray="0,0"><path id="SvgjsPath1363" d="M0,0 L14,5 L0,10 L0,0" fill="#323232" stroke="#323232" stroke-width="1"></path></marker><marker id="SvgjsMarker1372" markerWidth="14" markerHeight="10" refX="10" refY="5" viewBox="0 0 14 10" orient="auto" markerUnits="userSpaceOnUse" stroke-dasharray="0,0"><path id="SvgjsPath1373" d="M0,0 L14,5 L0,10 L0,0" fill="#323232" stroke="#323232" stroke-width="1"></path></marker><marker id="SvgjsMarker1382" markerWidth="14" markerHeight="10" refX="10" refY="5" viewBox="0 0 14 10" orient="auto" markerUnits="userSpaceOnUse" stroke-dasharray="0,0"><path id="SvgjsPath1383" d="M0,0 L14,5 L0,10 L0,0" fill="#323232" stroke="#323232" stroke-width="1"></path></marker><marker id="SvgjsMarker1386" markerWidth="14" markerHeight="10" refX="10" refY="5" viewBox="0 0 14 10" orient="auto" markerUnits="userSpaceOnUse" stroke-dasharray="0,0"><path id="SvgjsPath1387" d="M0,0 L14,5 L0,10 L0,0" fill="#323232" stroke="#323232" stroke-width="1"></path></marker><marker id="SvgjsMarker1438" markerWidth="14" markerHeight="10" refX="10" refY="5" viewBox="0 0 14 10" orient="auto" markerUnits="userSpaceOnUse" stroke-dasharray="0,0"><path id="SvgjsPath1439" d="M0,0 L14,5 L0,10 L0,0" fill="#323232" stroke="#323232" stroke-width="1"></path></marker><marker id="SvgjsMarker1448" markerWidth="14" markerHeight="10" refX="10" refY="5" viewBox="0 0 14 10" orient="auto" markerUnits="userSpaceOnUse" stroke-dasharray="0,0"><path id="SvgjsPath1449" d="M0,0 L14,5 L0,10 L0,0" fill="#323232" stroke="#323232" stroke-width="1"></path></marker><marker id="SvgjsMarker1458" markerWidth="14" markerHeight="10" refX="10" refY="5" viewBox="0 0 14 10" orient="auto" markerUnits="userSpaceOnUse" stroke-dasharray="0,0"><path id="SvgjsPath1459" d="M0,0 L14,5 L0,10 L0,0" fill="#323232" stroke="#323232" stroke-width="1"></path></marker><marker id="SvgjsMarker1462" markerWidth="14" markerHeight="10" refX="10" refY="5" viewBox="0 0 14 10" orient="auto" markerUnits="userSpaceOnUse" stroke-dasharray="0,0"><path id="SvgjsPath1463" d="M0,0 L14,5 L0,10 L0,0" fill="#323232" stroke="#323232" stroke-width="1"></path></marker><marker id="SvgjsMarker1466" markerWidth="14" markerHeight="10" refX="10" refY="5" viewBox="0 0 14 10" orient="auto" markerUnits="userSpaceOnUse" stroke-dasharray="0,0"><path id="SvgjsPath1467" d="M0,0 L14,5 L0,10 L0,0" fill="#323232" stroke="#323232" stroke-width="1"></path></marker><marker id="SvgjsMarker1476" markerWidth="14" markerHeight="10" refX="10" refY="5" viewBox="0 0 14 10" orient="auto" markerUnits="userSpaceOnUse" stroke-dasharray="0,0"><path id="SvgjsPath1477" d="M0,0 L14,5 L0,10 L0,0" fill="#323232" stroke="#323232" stroke-width="1"></path></marker><marker id="SvgjsMarker1510" markerWidth="14" markerHeight="10" refX="10" refY="5" viewBox="0 0 14 10" orient="auto" markerUnits="userSpaceOnUse" stroke-dasharray="0,0"><path id="SvgjsPath1511" d="M0,0 L14,5 L0,10 L0,0" fill="#323232" stroke="#323232" stroke-width="1"></path></marker><marker id="SvgjsMarker1514" markerWidth="14" markerHeight="10" refX="10" refY="5" viewBox="0 0 14 10" orient="auto" markerUnits="userSpaceOnUse" stroke-dasharray="0,0"><path id="SvgjsPath1515" d="M0,0 L14,5 L0,10 L0,0" fill="#323232" stroke="#323232" stroke-width="1"></path></marker><marker id="SvgjsMarker1518" markerWidth="14" markerHeight="10" refX="10" refY="5" viewBox="0 0 14 10" orient="auto" markerUnits="userSpaceOnUse" stroke-dasharray="0,0"><path id="SvgjsPath1519" d="M0,0 L14,5 L0,10 L0,0" fill="#323232" stroke="#323232" stroke-width="1"></path></marker><marker id="SvgjsMarker1528" markerWidth="14" markerHeight="10" refX="10" refY="5" viewBox="0 0 14 10" orient="auto" markerUnits="userSpaceOnUse" stroke-dasharray="0,0"><path id="SvgjsPath1529" d="M0,0 L14,5 L0,10 L0,0" fill="#323232" stroke="#323232" stroke-width="1"></path></marker><marker id="SvgjsMarker1538" markerWidth="14" markerHeight="10" refX="10" refY="5" viewBox="0 0 14 10" orient="auto" markerUnits="userSpaceOnUse" stroke-dasharray="0,0"><path id="SvgjsPath1539" d="M0,0 L14,5 L0,10 L0,0" fill="#323232" stroke="#323232" stroke-width="1"></path></marker><marker id="SvgjsMarker1548" markerWidth="14" markerHeight="10" refX="10" refY="5" viewBox="0 0 14 10" orient="auto" markerUnits="userSpaceOnUse" stroke-dasharray="0,0"><path id="SvgjsPath1549" d="M0,0 L14,5 L0,10 L0,0" fill="#323232" stroke="#323232" stroke-width="1"></path></marker><marker id="SvgjsMarker1576" markerWidth="14" markerHeight="10" refX="10" refY="5" viewBox="0 0 14 10" orient="auto" markerUnits="userSpaceOnUse" stroke-dasharray="0,0"><path id="SvgjsPath1577" d="M0,0 L14,5 L0,10 L0,0" fill="#323232" stroke="#323232" stroke-width="1"></path></marker><marker id="SvgjsMarker1580" markerWidth="14" markerHeight="10" refX="10" refY="5" viewBox="0 0 14 10" orient="auto" markerUnits="userSpaceOnUse" stroke-dasharray="0,0"><path id="SvgjsPath1581" d="M0,0 L14,5 L0,10 L0,0" fill="#323232" stroke="#323232" stroke-width="1"></path></marker><marker id="SvgjsMarker1584" markerWidth="14" markerHeight="10" refX="10" refY="5" viewBox="0 0 14 10" orient="auto" markerUnits="userSpaceOnUse" stroke-dasharray="0,0"><path id="SvgjsPath1585" d="M0,0 L14,5 L0,10 L0,0" fill="#323232" stroke="#323232" stroke-width="1"></path></marker><marker id="SvgjsMarker1594" markerWidth="14" markerHeight="10" refX="10" refY="5" viewBox="0 0 14 10" orient="auto" markerUnits="userSpaceOnUse" stroke-dasharray="0,0"><path id="SvgjsPath1595" d="M0,0 L14,5 L0,10 L0,0" fill="#323232" stroke="#323232" stroke-width="1"></path></marker><marker id="SvgjsMarker1604" markerWidth="14" markerHeight="10" refX="10" refY="5" viewBox="0 0 14 10" orient="auto" markerUnits="userSpaceOnUse" stroke-dasharray="0,0"><path id="SvgjsPath1605" d="M0,0 L14,5 L0,10 L0,0" fill="#323232" stroke="#323232" stroke-width="1"></path></marker><marker id="SvgjsMarker1614" markerWidth="14" markerHeight="10" refX="10" refY="5" viewBox="0 0 14 10" orient="auto" markerUnits="userSpaceOnUse" stroke-dasharray="0,0"><path id="SvgjsPath1615" d="M0,0 L14,5 L0,10 L0,0" fill="#323232" stroke="#323232" stroke-width="1"></path></marker><marker id="SvgjsMarker1618" markerWidth="14" markerHeight="10" refX="10" refY="5" viewBox="0 0 14 10" orient="auto" markerUnits="userSpaceOnUse" stroke-dasharray="0,0"><path id="SvgjsPath1619" d="M0,0 L14,5 L0,10 L0,0" fill="#323232" stroke="#323232" stroke-width="1"></path></marker><marker id="SvgjsMarker1628" markerWidth="14" markerHeight="10" refX="10" refY="5" viewBox="0 0 14 10" orient="auto" markerUnits="userSpaceOnUse" stroke-dasharray="0,0"><path id="SvgjsPath1629" d="M0,0 L14,5 L0,10 L0,0" fill="#323232" stroke="#323232" stroke-width="1"></path></marker><marker id="SvgjsMarker1644" markerWidth="14" markerHeight="10" refX="10" refY="5" viewBox="0 0 14 10" orient="auto" markerUnits="userSpaceOnUse" stroke-dasharray="0,0"><path id="SvgjsPath1645" d="M0,0 L14,5 L0,10 L0,0" fill="#323232" stroke="#323232" stroke-width="1"></path></marker></defs><g id="SvgjsG1328" transform="translate(271,103)"><path id="SvgjsPath1329" d="M 0 35C 0 -11.666666666666666 70 -11.666666666666666 70 35C 70 81.66666666666667 0 81.66666666666667 0 35Z" stroke="rgba(50,50,50,1)" stroke-width="2" fill-opacity="1" fill="#ffffff"></path><g id="SvgjsG1330"><text id="SvgjsText1331" font-family="微软雅黑" text-anchor="middle" font-size="13px" width="50px" fill="#323232" font-weight="400" align="middle" lineHeight="125%" anchor="middle" family="微软雅黑" size="13px" weight="400" font-style="" opacity="1" y="24.375" transform="rotate(0)"><tspan id="SvgjsTspan1332" dy="16" x="35"><tspan id="SvgjsTspan1333" style="text-decoration:;">a</tspan></tspan></text></g></g><g id="SvgjsG1334" transform="translate(429,103)"><path id="SvgjsPath1335" d="M 0 35C 0 -11.666666666666666 70 -11.666666666666666 70 35C 70 81.66666666666667 0 81.66666666666667 0 35Z" stroke="rgba(50,50,50,1)" stroke-width="2" fill-opacity="1" fill="#ffffff"></path><g id="SvgjsG1336"><text id="SvgjsText1337" font-family="微软雅黑" text-anchor="middle" font-size="13px" width="50px" fill="#323232" font-weight="400" align="middle" lineHeight="125%" anchor="middle" family="微软雅黑" size="13px" weight="400" font-style="" opacity="1" y="24.375" transform="rotate(0)"><tspan id="SvgjsTspan1338" dy="16" x="35"><tspan id="SvgjsTspan1339" style="text-decoration:;">b</tspan></tspan></text></g></g><g id="SvgjsG1340" transform="translate(587,103)"><path id="SvgjsPath1341" d="M 0 35C 0 -11.666666666666666 70 -11.666666666666666 70 35C 70 81.66666666666667 0 81.66666666666667 0 35Z" stroke="rgba(50,50,50,1)" stroke-width="2" fill-opacity="1" fill="#ffffff"></path><g id="SvgjsG1342"><text id="SvgjsText1343" font-family="微软雅黑" text-anchor="middle" font-size="13px" width="50px" fill="#323232" font-weight="400" align="middle" lineHeight="125%" anchor="middle" family="微软雅黑" size="13px" weight="400" font-style="" opacity="1" y="24.375" transform="rotate(0)"><tspan id="SvgjsTspan1344" dy="16" x="35"><tspan id="SvgjsTspan1345" style="text-decoration:;">c</tspan></tspan></text></g></g><g id="SvgjsG1346" transform="translate(745,103)"><path id="SvgjsPath1347" d="M 0 35C 0 -11.666666666666666 70 -11.666666666666666 70 35C 70 81.66666666666667 0 81.66666666666667 0 35Z" stroke="rgba(50,50,50,1)" stroke-width="2" fill-opacity="1" fill="#ffffff"></path><g id="SvgjsG1348"><text id="SvgjsText1349" font-family="微软雅黑" text-anchor="middle" font-size="13px" width="50px" fill="#323232" font-weight="400" align="middle" lineHeight="125%" anchor="middle" family="微软雅黑" size="13px" weight="400" font-style="" opacity="1" y="24.375" transform="rotate(0)"><tspan id="SvgjsTspan1350" dy="16" x="35"><tspan id="SvgjsTspan1351" style="text-decoration:;">d</tspan></tspan></text></g></g><g id="SvgjsG1352"><path id="SvgjsPath1353" d="M342 138L385 138L385 138L425.4 138" stroke="#323232" stroke-width="2" fill="none" marker-end="url(#SvgjsMarker1354)"></path></g><g id="SvgjsG1356"><path id="SvgjsPath1357" d="M500 138L543 138L543 138L583.4 138" stroke="#323232" stroke-width="2" fill="none" marker-end="url(#SvgjsMarker1358)"></path></g><g id="SvgjsG1360"><path id="SvgjsPath1361" d="M658 138L701 138L701 138L741.4 138" stroke="#323232" stroke-width="2" fill="none" marker-end="url(#SvgjsMarker1362)"></path></g><g id="SvgjsG1364" transform="translate(260.5,25)"><path id="SvgjsPath1365" d="M 0 0L 91 0L 91 21L 0 21Z" stroke="none" fill="none"></path><g id="SvgjsG1366"><text id="SvgjsText1367" font-family="微软雅黑" text-anchor="middle" font-size="13px" width="91px" fill="#323232" font-weight="400" align="middle" lineHeight="125%" anchor="middle" family="微软雅黑" size="13px" weight="400" font-style="" opacity="1" y="-0.125" transform="rotate(0)"><tspan id="SvgjsTspan1368" dy="16" x="45.5"><tspan id="SvgjsTspan1369" style="text-decoration:;">head</tspan></tspan></text></g></g><g id="SvgjsG1370"><path id="SvgjsPath1371" d="M306 47L306 74.5L306 74.5L306 99.4" stroke-dasharray="3,3" stroke="#323232" stroke-width="2" fill="none" marker-end="url(#SvgjsMarker1372)"></path></g><g id="SvgjsG1374" transform="translate(903,103)"><path id="SvgjsPath1375" d="M 0 35C 0 -11.666666666666666 70 -11.666666666666666 70 35C 70 81.66666666666667 0 81.66666666666667 0 35Z" stroke="rgba(50,50,50,1)" stroke-width="2" fill-opacity="1" fill="#ffffff"></path><g id="SvgjsG1376"><text id="SvgjsText1377" font-family="微软雅黑" text-anchor="middle" font-size="13px" width="50px" fill="#323232" font-weight="400" align="middle" lineHeight="125%" anchor="middle" family="微软雅黑" size="13px" weight="400" font-style="" opacity="1" y="24.375" transform="rotate(0)"><tspan id="SvgjsTspan1378" dy="16" x="35"><tspan id="SvgjsTspan1379" style="text-decoration:;">e</tspan></tspan></text></g></g><g id="SvgjsG1380"><path id="SvgjsPath1381" d="M816 138L859 138L859 138L899.4 138" stroke="#323232" stroke-width="2" fill="none" marker-end="url(#SvgjsMarker1382)"></path></g><g id="SvgjsG1384"><path id="SvgjsPath1385" d="M974 138L1008.5 138L1008.5 138L1044 138" stroke="#323232" stroke-width="2" fill="none" marker-end="url(#SvgjsMarker1386)"></path></g><g id="SvgjsG1388" transform="translate(1022.5,127.5)"><path id="SvgjsPath1389" d="M 0 0L 91 0L 91 21L 0 21Z" stroke="none" fill="none"></path><g id="SvgjsG1390"><text id="SvgjsText1391" font-family="微软雅黑" text-anchor="middle" font-size="13px" width="91px" fill="#323232" font-weight="400" align="middle" lineHeight="125%" anchor="middle" family="微软雅黑" size="13px" weight="400" font-style="" opacity="1" y="-0.125" transform="rotate(0)"><tspan id="SvgjsTspan1392" dy="16" x="45.5"><tspan id="SvgjsTspan1393" style="text-decoration:;">null</tspan></tspan></text></g></g><g id="SvgjsG1394" transform="translate(25,127.5)"><path id="SvgjsPath1395" d="M 0 0L 91 0L 91 21L 0 21Z" stroke="none" fill="none"></path><g id="SvgjsG1396"><text id="SvgjsText1397" font-family="微软雅黑" text-anchor="middle" font-size="24px" width="91px" fill="#323232" font-weight="400" align="middle" lineHeight="125%" anchor="middle" family="微软雅黑" size="24px" weight="400" font-style="" opacity="1" y="-10.5" transform="rotate(0)"><tspan id="SvgjsTspan1398" dy="30" x="45.5"><tspan id="SvgjsTspan1399" style="text-decoration:;">step1</tspan></tspan></text></g></g><g id="SvgjsG1400" transform="translate(25,429.5)"><path id="SvgjsPath1401" d="M 0 0L 91 0L 91 21L 0 21Z" stroke="none" fill="none"></path><g id="SvgjsG1402"><text id="SvgjsText1403" font-family="微软雅黑" text-anchor="middle" font-size="24px" width="91px" fill="#323232" font-weight="400" align="middle" lineHeight="125%" anchor="middle" family="微软雅黑" size="24px" weight="400" font-style="" opacity="1" y="-10.5" transform="rotate(0)"><tspan id="SvgjsTspan1404" dy="30" x="45.5"><tspan id="SvgjsTspan1405" style="text-decoration:;">stepn</tspan></tspan></text></g></g><g id="SvgjsG1406" transform="translate(25,688.5)"><path id="SvgjsPath1407" d="M 0 0L 91 0L 91 21L 0 21Z" stroke="none" fill="none"></path><g id="SvgjsG1408"><text id="SvgjsText1409" font-family="微软雅黑" text-anchor="middle" font-size="24px" width="91px" fill="#323232" font-weight="400" align="middle" lineHeight="125%" anchor="middle" family="微软雅黑" size="24px" weight="400" font-style="" opacity="1" y="-10.5" transform="rotate(0)"><tspan id="SvgjsTspan1410" dy="30" x="45.5"><tspan id="SvgjsTspan1411" style="text-decoration:;">stepn-1</tspan></tspan></text></g></g><g id="SvgjsG1412" transform="translate(271,970)"><path id="SvgjsPath1413" d="M 0 35C 0 -11.666666666666666 70 -11.666666666666666 70 35C 70 81.66666666666667 0 81.66666666666667 0 35Z" stroke="rgba(50,50,50,1)" stroke-width="2" fill-opacity="1" fill="#ffffff"></path><g id="SvgjsG1414"><text id="SvgjsText1415" font-family="微软雅黑" text-anchor="middle" font-size="13px" width="50px" fill="#323232" font-weight="400" align="middle" lineHeight="125%" anchor="middle" family="微软雅黑" size="13px" weight="400" font-style="" opacity="1" y="24.375" transform="rotate(0)"><tspan id="SvgjsTspan1416" dy="16" x="35"><tspan id="SvgjsTspan1417" style="text-decoration:;">a</tspan></tspan></text></g></g><g id="SvgjsG1418" transform="translate(429,970)"><path id="SvgjsPath1419" d="M 0 35C 0 -11.666666666666666 70 -11.666666666666666 70 35C 70 81.66666666666667 0 81.66666666666667 0 35Z" stroke="rgba(50,50,50,1)" stroke-width="2" fill-opacity="1" fill="#ffffff"></path><g id="SvgjsG1420"><text id="SvgjsText1421" font-family="微软雅黑" text-anchor="middle" font-size="13px" width="50px" fill="#323232" font-weight="400" align="middle" lineHeight="125%" anchor="middle" family="微软雅黑" size="13px" weight="400" font-style="" opacity="1" y="24.375" transform="rotate(0)"><tspan id="SvgjsTspan1422" dy="16" x="35"><tspan id="SvgjsTspan1423" style="text-decoration:;">b</tspan></tspan></text></g></g><g id="SvgjsG1424" transform="translate(587,970)"><path id="SvgjsPath1425" d="M 0 35C 0 -11.666666666666666 70 -11.666666666666666 70 35C 70 81.66666666666667 0 81.66666666666667 0 35Z" stroke="rgba(50,50,50,1)" stroke-width="2" fill-opacity="1" fill="#ffffff"></path><g id="SvgjsG1426"><text id="SvgjsText1427" font-family="微软雅黑" text-anchor="middle" font-size="13px" width="50px" fill="#323232" font-weight="400" align="middle" lineHeight="125%" anchor="middle" family="微软雅黑" size="13px" weight="400" font-style="" opacity="1" y="24.375" transform="rotate(0)"><tspan id="SvgjsTspan1428" dy="16" x="35"><tspan id="SvgjsTspan1429" style="text-decoration:;">c</tspan></tspan></text></g></g><g id="SvgjsG1430" transform="translate(745,970)"><path id="SvgjsPath1431" d="M 0 35C 0 -11.666666666666666 70 -11.666666666666666 70 35C 70 81.66666666666667 0 81.66666666666667 0 35Z" stroke="rgba(50,50,50,1)" stroke-width="2" fill-opacity="1" fill="#ffffff"></path><g id="SvgjsG1432"><text id="SvgjsText1433" font-family="微软雅黑" text-anchor="middle" font-size="13px" width="50px" fill="#323232" font-weight="400" align="middle" lineHeight="125%" anchor="middle" family="微软雅黑" size="13px" weight="400" font-style="" opacity="1" y="24.375" transform="rotate(0)"><tspan id="SvgjsTspan1434" dy="16" x="35"><tspan id="SvgjsTspan1435" style="text-decoration:;">d</tspan></tspan></text></g></g><g id="SvgjsG1436"><path id="SvgjsPath1437" d="M586 1005L543 1005L543 1005L502.6 1005" stroke="#323232" stroke-width="2" fill="none" marker-end="url(#SvgjsMarker1438)"></path></g><g id="SvgjsG1440" transform="translate(892.5,892)"><path id="SvgjsPath1441" d="M 0 0L 91 0L 91 21L 0 21Z" stroke="none" fill="none"></path><g id="SvgjsG1442"><text id="SvgjsText1443" font-family="微软雅黑" text-anchor="middle" font-size="13px" width="91px" fill="#323232" font-weight="400" align="middle" lineHeight="125%" anchor="middle" family="微软雅黑" size="13px" weight="400" font-style="" opacity="1" y="-0.125" transform="rotate(0)"><tspan id="SvgjsTspan1444" dy="16" x="45.5"><tspan id="SvgjsTspan1445" style="text-decoration:;">newHead</tspan></tspan></text></g></g><g id="SvgjsG1446"><path id="SvgjsPath1447" d="M938 914L938 941.5L938 941.5L938 966.4000000000001" stroke-dasharray="3,3" stroke="#323232" stroke-width="2" fill="none" marker-end="url(#SvgjsMarker1448)"></path></g><g id="SvgjsG1450" transform="translate(903,970)"><path id="SvgjsPath1451" d="M 0 35C 0 -11.666666666666666 70 -11.666666666666666 70 35C 70 81.66666666666667 0 81.66666666666667 0 35Z" stroke="rgba(50,50,50,1)" stroke-width="2" fill-opacity="1" fill="#ffffff"></path><g id="SvgjsG1452"><text id="SvgjsText1453" font-family="微软雅黑" text-anchor="middle" font-size="13px" width="50px" fill="#323232" font-weight="400" align="middle" lineHeight="125%" anchor="middle" family="微软雅黑" size="13px" weight="400" font-style="" opacity="1" y="24.375" transform="rotate(0)"><tspan id="SvgjsTspan1454" dy="16" x="35"><tspan id="SvgjsTspan1455" style="text-decoration:;">e</tspan></tspan></text></g></g><g id="SvgjsG1456"><path id="SvgjsPath1457" d="M744 1005L701 1005L701 1005L660.6 1005" stroke="#323232" stroke-width="2" fill="none" marker-end="url(#SvgjsMarker1458)"></path></g><g id="SvgjsG1460"><path id="SvgjsPath1461" d="M428 1005L385 1005L385 1005L344.6 1005" stroke="#323232" stroke-width="2" fill="none" marker-end="url(#SvgjsMarker1462)"></path></g><g id="SvgjsG1464"><path id="SvgjsPath1465" d="M270 1005L242.5 1005L242.5 1005L214 1005" stroke="#323232" stroke-width="2" fill="none" marker-end="url(#SvgjsMarker1466)"></path></g><g id="SvgjsG1468" transform="translate(142.5,994.5)"><path id="SvgjsPath1469" d="M 0 0L 91 0L 91 21L 0 21Z" stroke="none" fill="none"></path><g id="SvgjsG1470"><text id="SvgjsText1471" font-family="微软雅黑" text-anchor="middle" font-size="13px" width="91px" fill="#323232" font-weight="400" align="middle" lineHeight="125%" anchor="middle" family="微软雅黑" size="13px" weight="400" font-style="" opacity="1" y="-0.125" transform="rotate(0)"><tspan id="SvgjsTspan1472" dy="16" x="45.5"><tspan id="SvgjsTspan1473" style="text-decoration:;">null</tspan></tspan></text></g></g><g id="SvgjsG1474"><path id="SvgjsPath1475" d="M902 1005L859 1005L859 1005L818.6 1005" stroke="#323232" stroke-width="2" fill="none" marker-end="url(#SvgjsMarker1476)"></path></g><g id="SvgjsG1478" transform="translate(25,994.5)"><path id="SvgjsPath1479" d="M 0 0L 91 0L 91 21L 0 21Z" stroke="none" fill="none"></path><g id="SvgjsG1480"><text id="SvgjsText1481" font-family="微软雅黑" text-anchor="middle" font-size="24px" width="91px" fill="#323232" font-weight="400" align="middle" lineHeight="125%" anchor="middle" family="微软雅黑" size="24px" weight="400" font-style="" opacity="1" y="-10.5" transform="rotate(0)"><tspan id="SvgjsTspan1482" dy="30" x="45.5"><tspan id="SvgjsTspan1483" style="text-decoration:;">step0</tspan></tspan></text></g></g><g id="SvgjsG1484" transform="translate(271,408)"><path id="SvgjsPath1485" d="M 0 35C 0 -11.666666666666666 70 -11.666666666666666 70 35C 70 81.66666666666667 0 81.66666666666667 0 35Z" stroke="rgba(50,50,50,1)" stroke-width="2" fill-opacity="1" fill="#ffffff"></path><g id="SvgjsG1486"><text id="SvgjsText1487" font-family="微软雅黑" text-anchor="middle" font-size="13px" width="50px" fill="#323232" font-weight="400" align="middle" lineHeight="125%" anchor="middle" family="微软雅黑" size="13px" weight="400" font-style="" opacity="1" y="24.375" transform="rotate(0)"><tspan id="SvgjsTspan1488" dy="16" x="35"><tspan id="SvgjsTspan1489" style="text-decoration:;">a</tspan></tspan></text></g></g><g id="SvgjsG1490" transform="translate(429,408)"><path id="SvgjsPath1491" d="M 0 35C 0 -11.666666666666666 70 -11.666666666666666 70 35C 70 81.66666666666667 0 81.66666666666667 0 35Z" stroke="rgba(50,50,50,1)" stroke-width="2" fill-opacity="1" fill="#ffffff"></path><g id="SvgjsG1492"><text id="SvgjsText1493" font-family="微软雅黑" text-anchor="middle" font-size="13px" width="50px" fill="#323232" font-weight="400" align="middle" lineHeight="125%" anchor="middle" family="微软雅黑" size="13px" weight="400" font-style="" opacity="1" y="24.375" transform="rotate(0)"><tspan id="SvgjsTspan1494" dy="16" x="35"><tspan id="SvgjsTspan1495" style="text-decoration:;">b</tspan></tspan></text></g></g><g id="SvgjsG1496" transform="translate(587,408)"><path id="SvgjsPath1497" d="M 0 35C 0 -11.666666666666666 70 -11.666666666666666 70 35C 70 81.66666666666667 0 81.66666666666667 0 35Z" stroke="rgba(50,50,50,1)" stroke-width="2" fill-opacity="1" fill="#ffffff"></path><g id="SvgjsG1498"><text id="SvgjsText1499" font-family="微软雅黑" text-anchor="middle" font-size="13px" width="50px" fill="#323232" font-weight="400" align="middle" lineHeight="125%" anchor="middle" family="微软雅黑" size="13px" weight="400" font-style="" opacity="1" y="24.375" transform="rotate(0)"><tspan id="SvgjsTspan1500" dy="16" x="35"><tspan id="SvgjsTspan1501" style="text-decoration:;">c</tspan></tspan></text></g></g><g id="SvgjsG1502" transform="translate(745,408)"><path id="SvgjsPath1503" d="M 0 35C 0 -11.666666666666666 70 -11.666666666666666 70 35C 70 81.66666666666667 0 81.66666666666667 0 35Z" stroke="rgba(50,50,50,1)" stroke-width="2" fill-opacity="1" fill="#ffffff"></path><g id="SvgjsG1504"><text id="SvgjsText1505" font-family="微软雅黑" text-anchor="middle" font-size="13px" width="50px" fill="#323232" font-weight="400" align="middle" lineHeight="125%" anchor="middle" family="微软雅黑" size="13px" weight="400" font-style="" opacity="1" y="24.375" transform="rotate(0)"><tspan id="SvgjsTspan1506" dy="16" x="35"><tspan id="SvgjsTspan1507" style="text-decoration:;">d</tspan></tspan></text></g></g><g id="SvgjsG1508"><path id="SvgjsPath1509" d="M342 443L385 443L385 443L425.4 443" stroke="#323232" stroke-width="2" fill="none" marker-end="url(#SvgjsMarker1510)"></path></g><g id="SvgjsG1512"><path id="SvgjsPath1513" d="M500 443L543 443L543 443L583.4 443" stroke="#323232" stroke-width="2" fill="none" marker-end="url(#SvgjsMarker1514)"></path></g><g id="SvgjsG1516"><path id="SvgjsPath1517" d="M658 443L701 443L701 443L741.4 443" stroke="#323232" stroke-width="2" fill="none" marker-end="url(#SvgjsMarker1518)"></path></g><g id="SvgjsG1520" transform="translate(903,408)"><path id="SvgjsPath1521" d="M 0 35C 0 -11.666666666666666 70 -11.666666666666666 70 35C 70 81.66666666666667 0 81.66666666666667 0 35Z" stroke="rgba(50,50,50,1)" stroke-width="2" fill-opacity="1" fill="#ffffff"></path><g id="SvgjsG1522"><text id="SvgjsText1523" font-family="微软雅黑" text-anchor="middle" font-size="13px" width="50px" fill="#323232" font-weight="400" align="middle" lineHeight="125%" anchor="middle" family="微软雅黑" size="13px" weight="400" font-style="" opacity="1" y="24.375" transform="rotate(0)"><tspan id="SvgjsTspan1524" dy="16" x="35"><tspan id="SvgjsTspan1525" style="text-decoration:;">e</tspan></tspan></text></g></g><g id="SvgjsG1526"><path id="SvgjsPath1527" d="M902 443L859 443L859 443L818.6 443" stroke="#323232" stroke-width="2" fill="none" marker-end="url(#SvgjsMarker1528)"></path></g><g id="SvgjsG1530" transform="translate(892.5,326)"><path id="SvgjsPath1531" d="M 0 0L 91 0L 91 21L 0 21Z" stroke="none" fill="none"></path><g id="SvgjsG1532"><text id="SvgjsText1533" font-family="微软雅黑" text-anchor="middle" font-size="13px" width="91px" fill="#323232" font-weight="400" align="middle" lineHeight="125%" anchor="middle" family="微软雅黑" size="13px" weight="400" font-style="" opacity="1" y="-0.125" transform="rotate(0)"><tspan id="SvgjsTspan1534" dy="16" x="45.5"><tspan id="SvgjsTspan1535" style="text-decoration:;">newHead</tspan></tspan></text></g></g><g id="SvgjsG1536"><path id="SvgjsPath1537" d="M938 347L938 375.5L938 375.5L938 404" stroke-dasharray="3,3" stroke="#323232" stroke-width="2" fill="none" marker-end="url(#SvgjsMarker1538)"></path></g><g id="SvgjsG1540" transform="translate(734.5,326)"><path id="SvgjsPath1541" d="M 0 0L 91 0L 91 21L 0 21Z" stroke="none" fill="none"></path><g id="SvgjsG1542"><text id="SvgjsText1543" font-family="微软雅黑" text-anchor="middle" font-size="13px" width="91px" fill="#323232" font-weight="400" align="middle" lineHeight="125%" anchor="middle" family="微软雅黑" size="13px" weight="400" font-style="" opacity="1" y="-0.125" transform="rotate(0)"><tspan id="SvgjsTspan1544" dy="16" x="45.5"><tspan id="SvgjsTspan1545" style="text-decoration:;">head</tspan></tspan></text></g></g><g id="SvgjsG1546"><path id="SvgjsPath1547" d="M780 348L780 377.5L780 377.5L780 404.4" stroke-dasharray="3,3" stroke="#323232" stroke-width="2" fill="none" marker-end="url(#SvgjsMarker1548)"></path></g><g id="SvgjsG1550" transform="translate(271,668)"><path id="SvgjsPath1551" d="M 0 35C 0 -11.666666666666666 70 -11.666666666666666 70 35C 70 81.66666666666667 0 81.66666666666667 0 35Z" stroke="rgba(50,50,50,1)" stroke-width="2" fill-opacity="1" fill="#ffffff"></path><g id="SvgjsG1552"><text id="SvgjsText1553" font-family="微软雅黑" text-anchor="middle" font-size="13px" width="50px" fill="#323232" font-weight="400" align="middle" lineHeight="125%" anchor="middle" family="微软雅黑" size="13px" weight="400" font-style="" opacity="1" y="24.375" transform="rotate(0)"><tspan id="SvgjsTspan1554" dy="16" x="35"><tspan id="SvgjsTspan1555" style="text-decoration:;">a</tspan></tspan></text></g></g><g id="SvgjsG1556" transform="translate(429,668)"><path id="SvgjsPath1557" d="M 0 35C 0 -11.666666666666666 70 -11.666666666666666 70 35C 70 81.66666666666667 0 81.66666666666667 0 35Z" stroke="rgba(50,50,50,1)" stroke-width="2" fill-opacity="1" fill="#ffffff"></path><g id="SvgjsG1558"><text id="SvgjsText1559" font-family="微软雅黑" text-anchor="middle" font-size="13px" width="50px" fill="#323232" font-weight="400" align="middle" lineHeight="125%" anchor="middle" family="微软雅黑" size="13px" weight="400" font-style="" opacity="1" y="24.375" transform="rotate(0)"><tspan id="SvgjsTspan1560" dy="16" x="35"><tspan id="SvgjsTspan1561" style="text-decoration:;">b</tspan></tspan></text></g></g><g id="SvgjsG1562" transform="translate(587,668)"><path id="SvgjsPath1563" d="M 0 35C 0 -11.666666666666666 70 -11.666666666666666 70 35C 70 81.66666666666667 0 81.66666666666667 0 35Z" stroke="rgba(50,50,50,1)" stroke-width="2" fill-opacity="1" fill="#ffffff"></path><g id="SvgjsG1564"><text id="SvgjsText1565" font-family="微软雅黑" text-anchor="middle" font-size="13px" width="50px" fill="#323232" font-weight="400" align="middle" lineHeight="125%" anchor="middle" family="微软雅黑" size="13px" weight="400" font-style="" opacity="1" y="24.375" transform="rotate(0)"><tspan id="SvgjsTspan1566" dy="16" x="35"><tspan id="SvgjsTspan1567" style="text-decoration:;">c</tspan></tspan></text></g></g><g id="SvgjsG1568" transform="translate(745,668)"><path id="SvgjsPath1569" d="M 0 35C 0 -11.666666666666666 70 -11.666666666666666 70 35C 70 81.66666666666667 0 81.66666666666667 0 35Z" stroke="rgba(50,50,50,1)" stroke-width="2" fill-opacity="1" fill="#ffffff"></path><g id="SvgjsG1570"><text id="SvgjsText1571" font-family="微软雅黑" text-anchor="middle" font-size="13px" width="50px" fill="#323232" font-weight="400" align="middle" lineHeight="125%" anchor="middle" family="微软雅黑" size="13px" weight="400" font-style="" opacity="1" y="24.375" transform="rotate(0)"><tspan id="SvgjsTspan1572" dy="16" x="35"><tspan id="SvgjsTspan1573" style="text-decoration:;">d</tspan></tspan></text></g></g><g id="SvgjsG1574"><path id="SvgjsPath1575" d="M342 703L385 703L385 703L425.4 703" stroke="#323232" stroke-width="2" fill="none" marker-end="url(#SvgjsMarker1576)"></path></g><g id="SvgjsG1578"><path id="SvgjsPath1579" d="M500 703L543 703L543 703L583.4 703" stroke="#323232" stroke-width="2" fill="none" marker-end="url(#SvgjsMarker1580)"></path></g><g id="SvgjsG1582"><path id="SvgjsPath1583" d="M624 739L624 768.75L624 768.75L624 799.5" stroke="#323232" stroke-width="2" fill="none" marker-end="url(#SvgjsMarker1584)"></path></g><g id="SvgjsG1586" transform="translate(903,668)"><path id="SvgjsPath1587" d="M 0 35C 0 -11.666666666666666 70 -11.666666666666666 70 35C 70 81.66666666666667 0 81.66666666666667 0 35Z" stroke="rgba(50,50,50,1)" stroke-width="2" fill-opacity="1" fill="#ffffff"></path><g id="SvgjsG1588"><text id="SvgjsText1589" font-family="微软雅黑" text-anchor="middle" font-size="13px" width="50px" fill="#323232" font-weight="400" align="middle" lineHeight="125%" anchor="middle" family="微软雅黑" size="13px" weight="400" font-style="" opacity="1" y="24.375" transform="rotate(0)"><tspan id="SvgjsTspan1590" dy="16" x="35"><tspan id="SvgjsTspan1591" style="text-decoration:;">e</tspan></tspan></text></g></g><g id="SvgjsG1592"><path id="SvgjsPath1593" d="M902 703L859 703L859 703L818.6 703" stroke="#323232" stroke-width="2" fill="none" marker-end="url(#SvgjsMarker1594)"></path></g><g id="SvgjsG1596" transform="translate(892.5,586)"><path id="SvgjsPath1597" d="M 0 0L 91 0L 91 21L 0 21Z" stroke="none" fill="none"></path><g id="SvgjsG1598"><text id="SvgjsText1599" font-family="微软雅黑" text-anchor="middle" font-size="13px" width="91px" fill="#323232" font-weight="400" align="middle" lineHeight="125%" anchor="middle" family="微软雅黑" size="13px" weight="400" font-style="" opacity="1" y="-0.125" transform="rotate(0)"><tspan id="SvgjsTspan1600" dy="16" x="45.5"><tspan id="SvgjsTspan1601" style="text-decoration:;">newHead</tspan></tspan></text></g></g><g id="SvgjsG1602"><path id="SvgjsPath1603" d="M938 607L938 635.5L938 635.5L938 664" stroke-dasharray="3,3" stroke="#323232" stroke-width="2" fill="none" marker-end="url(#SvgjsMarker1604)"></path></g><g id="SvgjsG1606" transform="translate(576.5,586)"><path id="SvgjsPath1607" d="M 0 0L 91 0L 91 21L 0 21Z" stroke="none" fill="none"></path><g id="SvgjsG1608"><text id="SvgjsText1609" font-family="微软雅黑" text-anchor="middle" font-size="13px" width="91px" fill="#323232" font-weight="400" align="middle" lineHeight="125%" anchor="middle" family="微软雅黑" size="13px" weight="400" font-style="" opacity="1" y="-0.125" transform="rotate(0)"><tspan id="SvgjsTspan1610" dy="16" x="45.5"><tspan id="SvgjsTspan1611" style="text-decoration:;">head</tspan></tspan></text></g></g><g id="SvgjsG1612"><path id="SvgjsPath1613" d="M622 608L622 637.5L622 637.5L622 664.4" stroke-dasharray="3,3" stroke="#323232" stroke-width="2" fill="none" marker-end="url(#SvgjsMarker1614)"></path></g><g id="SvgjsG1616"><path id="SvgjsPath1617" d="M780 479L780 501.25L780 501.25L780 524.5" stroke="#323232" stroke-width="2" fill="none" marker-end="url(#SvgjsMarker1618)"></path></g><g id="SvgjsG1620" transform="translate(734.5,527)"><path id="SvgjsPath1621" d="M 0 0L 91 0L 91 21L 0 21Z" stroke="none" fill="none"></path><g id="SvgjsG1622"><text id="SvgjsText1623" font-family="微软雅黑" text-anchor="middle" font-size="13px" width="91px" fill="#323232" font-weight="400" align="middle" lineHeight="125%" anchor="middle" family="微软雅黑" size="13px" weight="400" font-style="" opacity="1" y="-0.125" transform="rotate(0)"><tspan id="SvgjsTspan1624" dy="16" x="45.5"><tspan id="SvgjsTspan1625" style="text-decoration:;">null</tspan></tspan></text></g></g><g id="SvgjsG1626"><path id="SvgjsPath1627" d="M744 703L701 703L701 703L660.6 703" stroke="#323232" stroke-width="2" fill="none" marker-end="url(#SvgjsMarker1628)"></path></g><g id="SvgjsG1630" transform="translate(576.5,799)"><path id="SvgjsPath1631" d="M 0 0L 91 0L 91 21L 0 21Z" stroke="none" fill="none"></path><g id="SvgjsG1632"><text id="SvgjsText1633" font-family="微软雅黑" text-anchor="middle" font-size="13px" width="91px" fill="#323232" font-weight="400" align="middle" lineHeight="125%" anchor="middle" family="微软雅黑" size="13px" weight="400" font-style="" opacity="1" y="-0.125" transform="rotate(0)"><tspan id="SvgjsTspan1634" dy="16" x="45.5"><tspan id="SvgjsTspan1635" style="text-decoration:;">null</tspan></tspan></text></g></g><g id="SvgjsG1636" transform="translate(260.5,892)"><path id="SvgjsPath1637" d="M 0 0L 91 0L 91 21L 0 21Z" stroke="none" fill="none"></path><g id="SvgjsG1638"><text id="SvgjsText1639" font-family="微软雅黑" text-anchor="middle" font-size="13px" width="91px" fill="#323232" font-weight="400" align="middle" lineHeight="125%" anchor="middle" family="微软雅黑" size="13px" weight="400" font-style="" opacity="1" y="-0.125" transform="rotate(0)"><tspan id="SvgjsTspan1640" dy="16" x="45.5"><tspan id="SvgjsTspan1641" style="text-decoration:;">head</tspan></tspan></text></g></g><g id="SvgjsG1642"><path id="SvgjsPath1643" d="M306 914L306 941.5L306 941.5L306 966.4000000000001" stroke-dasharray="3,3" stroke="#323232" stroke-width="2" fill="none" marker-end="url(#SvgjsMarker1644)"></path></g></svg>