<svg id="SvgjsSvg1332" width="1144.5" height="1162" xmlns="http://www.w3.org/2000/svg" version="1.1" xmlns:xlink="http://www.w3.org/1999/xlink" xmlns:svgjs="http://svgjs.com/svgjs"><defs id="SvgjsDefs1333"><marker id="SvgjsMarker1360" markerWidth="14" markerHeight="10" refX="10" refY="5" viewBox="0 0 14 10" orient="auto" markerUnits="userSpaceOnUse" stroke-dasharray="0,0"><path id="SvgjsPath1361" d="M0,0 L14,5 L0,10 L0,0" fill="#323232" stroke="#323232" stroke-width="1"></path></marker><marker id="SvgjsMarker1364" markerWidth="14" markerHeight="10" refX="10" refY="5" viewBox="0 0 14 10" orient="auto" markerUnits="userSpaceOnUse" stroke-dasharray="0,0"><path id="SvgjsPath1365" d="M0,0 L14,5 L0,10 L0,0" fill="#323232" stroke="#323232" stroke-width="1"></path></marker><marker id="SvgjsMarker1368" markerWidth="14" markerHeight="10" refX="10" refY="5" viewBox="0 0 14 10" orient="auto" markerUnits="userSpaceOnUse" stroke-dasharray="0,0"><path id="SvgjsPath1369" d="M0,0 L14,5 L0,10 L0,0" fill="#323232" stroke="#323232" stroke-width="1"></path></marker><marker id="SvgjsMarker1378" markerWidth="14" markerHeight="10" refX="10" refY="5" viewBox="0 0 14 10" orient="auto" markerUnits="userSpaceOnUse" stroke-dasharray="0,0"><path id="SvgjsPath1379" d="M0,0 L14,5 L0,10 L0,0" fill="#323232" stroke="#323232" stroke-width="1"></path></marker><marker id="SvgjsMarker1388" markerWidth="14" markerHeight="10" refX="10" refY="5" viewBox="0 0 14 10" orient="auto" markerUnits="userSpaceOnUse" stroke-dasharray="0,0"><path id="SvgjsPath1389" d="M0,0 L14,5 L0,10 L0,0" fill="#323232" stroke="#323232" stroke-width="1"></path></marker><marker id="SvgjsMarker1398" markerWidth="14" markerHeight="10" refX="10" refY="5" viewBox="0 0 14 10" orient="auto" markerUnits="userSpaceOnUse" stroke-dasharray="0,0"><path id="SvgjsPath1399" d="M0,0 L14,5 L0,10 L0,0" fill="#323232" stroke="#323232" stroke-width="1"></path></marker><marker id="SvgjsMarker1408" markerWidth="14" markerHeight="10" refX="10" refY="5" viewBox="0 0 14 10" orient="auto" markerUnits="userSpaceOnUse" stroke-dasharray="0,0"><path id="SvgjsPath1409" d="M0,0 L14,5 L0,10 L0,0" fill="#323232" stroke="#323232" stroke-width="1"></path></marker><marker id="SvgjsMarker1418" markerWidth="14" markerHeight="10" refX="10" refY="5" viewBox="0 0 14 10" orient="auto" markerUnits="userSpaceOnUse" stroke-dasharray="0,0"><path id="SvgjsPath1419" d="M0,0 L14,5 L0,10 L0,0" fill="#323232" stroke="#323232" stroke-width="1"></path></marker><marker id="SvgjsMarker1446" markerWidth="14" markerHeight="10" refX="10" refY="5" viewBox="0 0 14 10" orient="auto" markerUnits="userSpaceOnUse" stroke-dasharray="0,0"><path id="SvgjsPath1447" d="M0,0 L14,5 L0,10 L0,0" fill="#323232" stroke="#323232" stroke-width="1"></path></marker><marker id="SvgjsMarker1456" markerWidth="14" markerHeight="10" refX="10" refY="5" viewBox="0 0 14 10" orient="auto" markerUnits="userSpaceOnUse" stroke-dasharray="0,0"><path id="SvgjsPath1457" d="M0,0 L14,5 L0,10 L0,0" fill="#323232" stroke="#323232" stroke-width="1"></path></marker><marker id="SvgjsMarker1466" markerWidth="14" markerHeight="10" refX="10" refY="5" viewBox="0 0 14 10" orient="auto" markerUnits="userSpaceOnUse" stroke-dasharray="0,0"><path id="SvgjsPath1467" d="M0,0 L14,5 L0,10 L0,0" fill="#323232" stroke="#323232" stroke-width="1"></path></marker><marker id="SvgjsMarker1476" markerWidth="14" markerHeight="10" refX="10" refY="5" viewBox="0 0 14 10" orient="auto" markerUnits="userSpaceOnUse" stroke-dasharray="0,0"><path id="SvgjsPath1477" d="M0,0 L14,5 L0,10 L0,0" fill="#323232" stroke="#323232" stroke-width="1"></path></marker><marker id="SvgjsMarker1486" markerWidth="14" markerHeight="10" refX="10" refY="5" viewBox="0 0 14 10" orient="auto" markerUnits="userSpaceOnUse" stroke-dasharray="0,0"><path id="SvgjsPath1487" d="M0,0 L14,5 L0,10 L0,0" fill="#323232" stroke="#323232" stroke-width="1"></path></marker><marker id="SvgjsMarker1496" markerWidth="14" markerHeight="10" refX="10" refY="5" viewBox="0 0 14 10" orient="auto" markerUnits="userSpaceOnUse" stroke-dasharray="0,0"><path id="SvgjsPath1497" d="M0,0 L14,5 L0,10 L0,0" fill="#323232" stroke="#323232" stroke-width="1"></path></marker><marker id="SvgjsMarker1500" markerWidth="14" markerHeight="10" refX="10" refY="5" viewBox="0 0 14 10" orient="auto" markerUnits="userSpaceOnUse" stroke-dasharray="0,0"><path id="SvgjsPath1501" d="M0,0 L14,5 L0,10 L0,0" fill="#323232" stroke="#323232" stroke-width="1"></path></marker><marker id="SvgjsMarker1504" markerWidth="14" markerHeight="10" refX="10" refY="5" viewBox="0 0 14 10" orient="auto" markerUnits="userSpaceOnUse" stroke-dasharray="0,0"><path id="SvgjsPath1505" d="M0,0 L14,5 L0,10 L0,0" fill="#323232" stroke="#323232" stroke-width="1"></path></marker><marker id="SvgjsMarker1514" markerWidth="14" markerHeight="10" refX="10" refY="5" viewBox="0 0 14 10" orient="auto" markerUnits="userSpaceOnUse" stroke-dasharray="0,0"><path id="SvgjsPath1515" d="M0,0 L14,5 L0,10 L0,0" fill="#323232" stroke="#323232" stroke-width="1"></path></marker><marker id="SvgjsMarker1548" markerWidth="14" markerHeight="10" refX="10" refY="5" viewBox="0 0 14 10" orient="auto" markerUnits="userSpaceOnUse" stroke-dasharray="0,0"><path id="SvgjsPath1549" d="M0,0 L14,5 L0,10 L0,0" fill="#323232" stroke="#323232" stroke-width="1"></path></marker><marker id="SvgjsMarker1552" markerWidth="14" markerHeight="10" refX="10" refY="5" viewBox="0 0 14 10" orient="auto" markerUnits="userSpaceOnUse" stroke-dasharray="0,0"><path id="SvgjsPath1553" d="M0,0 L14,5 L0,10 L0,0" fill="#323232" stroke="#323232" stroke-width="1"></path></marker><marker id="SvgjsMarker1556" markerWidth="14" markerHeight="10" refX="10" refY="5" viewBox="0 0 14 10" orient="auto" markerUnits="userSpaceOnUse" stroke-dasharray="0,0"><path id="SvgjsPath1557" d="M0,0 L14,5 L0,10 L0,0" fill="#323232" stroke="#323232" stroke-width="1"></path></marker><marker id="SvgjsMarker1566" markerWidth="14" markerHeight="10" refX="10" refY="5" viewBox="0 0 14 10" orient="auto" markerUnits="userSpaceOnUse" stroke-dasharray="0,0"><path id="SvgjsPath1567" d="M0,0 L14,5 L0,10 L0,0" fill="#323232" stroke="#323232" stroke-width="1"></path></marker><marker id="SvgjsMarker1576" markerWidth="14" markerHeight="10" refX="10" refY="5" viewBox="0 0 14 10" orient="auto" markerUnits="userSpaceOnUse" stroke-dasharray="0,0"><path id="SvgjsPath1577" d="M0,0 L14,5 L0,10 L0,0" fill="#323232" stroke="#323232" stroke-width="1"></path></marker><marker id="SvgjsMarker1586" markerWidth="14" markerHeight="10" refX="10" refY="5" viewBox="0 0 14 10" orient="auto" markerUnits="userSpaceOnUse" stroke-dasharray="0,0"><path id="SvgjsPath1587" d="M0,0 L14,5 L0,10 L0,0" fill="#323232" stroke="#323232" stroke-width="1"></path></marker><marker id="SvgjsMarker1596" markerWidth="14" markerHeight="10" refX="10" refY="5" viewBox="0 0 14 10" orient="auto" markerUnits="userSpaceOnUse" stroke-dasharray="0,0"><path id="SvgjsPath1597" d="M0,0 L14,5 L0,10 L0,0" fill="#323232" stroke="#323232" stroke-width="1"></path></marker><marker id="SvgjsMarker1606" markerWidth="14" markerHeight="10" refX="10" refY="5" viewBox="0 0 14 10" orient="auto" markerUnits="userSpaceOnUse" stroke-dasharray="0,0"><path id="SvgjsPath1607" d="M0,0 L14,5 L0,10 L0,0" fill="#323232" stroke="#323232" stroke-width="1"></path></marker><marker id="SvgjsMarker1610" markerWidth="14" markerHeight="10" refX="10" refY="5" viewBox="0 0 14 10" orient="auto" markerUnits="userSpaceOnUse" stroke-dasharray="0,0"><path id="SvgjsPath1611" d="M0,0 L14,5 L0,10 L0,0" fill="#323232" stroke="#323232" stroke-width="1"></path></marker><marker id="SvgjsMarker1632" markerWidth="14" markerHeight="10" refX="10" refY="5" viewBox="0 0 14 10" orient="auto" markerUnits="userSpaceOnUse" stroke-dasharray="0,0"><path id="SvgjsPath1633" d="M0,0 L14,5 L0,10 L0,0" fill="#323232" stroke="#323232" stroke-width="1"></path></marker><marker id="SvgjsMarker1684" markerWidth="14" markerHeight="10" refX="10" refY="5" viewBox="0 0 14 10" orient="auto" markerUnits="userSpaceOnUse" stroke-dasharray="0,0"><path id="SvgjsPath1685" d="M0,0 L14,5 L0,10 L0,0" fill="#323232" stroke="#323232" stroke-width="1"></path></marker><marker id="SvgjsMarker1694" markerWidth="14" markerHeight="10" refX="10" refY="5" viewBox="0 0 14 10" orient="auto" markerUnits="userSpaceOnUse" stroke-dasharray="0,0"><path id="SvgjsPath1695" d="M0,0 L14,5 L0,10 L0,0" fill="#323232" stroke="#323232" stroke-width="1"></path></marker><marker id="SvgjsMarker1704" markerWidth="14" markerHeight="10" refX="10" refY="5" viewBox="0 0 14 10" orient="auto" markerUnits="userSpaceOnUse" stroke-dasharray="0,0"><path id="SvgjsPath1705" d="M0,0 L14,5 L0,10 L0,0" fill="#323232" stroke="#323232" stroke-width="1"></path></marker><marker id="SvgjsMarker1714" markerWidth="14" markerHeight="10" refX="10" refY="5" viewBox="0 0 14 10" orient="auto" markerUnits="userSpaceOnUse" stroke-dasharray="0,0"><path id="SvgjsPath1715" d="M0,0 L14,5 L0,10 L0,0" fill="#323232" stroke="#323232" stroke-width="1"></path></marker><marker id="SvgjsMarker1724" markerWidth="14" markerHeight="10" refX="10" refY="5" viewBox="0 0 14 10" orient="auto" markerUnits="userSpaceOnUse" stroke-dasharray="0,0"><path id="SvgjsPath1725" d="M0,0 L14,5 L0,10 L0,0" fill="#323232" stroke="#323232" stroke-width="1"></path></marker><marker id="SvgjsMarker1734" markerWidth="14" markerHeight="10" refX="10" refY="5" viewBox="0 0 14 10" orient="auto" markerUnits="userSpaceOnUse" stroke-dasharray="0,0"><path id="SvgjsPath1735" d="M0,0 L14,5 L0,10 L0,0" fill="#323232" stroke="#323232" stroke-width="1"></path></marker><marker id="SvgjsMarker1738" markerWidth="14" markerHeight="10" refX="10" refY="5" viewBox="0 0 14 10" orient="auto" markerUnits="userSpaceOnUse" stroke-dasharray="0,0"><path id="SvgjsPath1739" d="M0,0 L14,5 L0,10 L0,0" fill="#323232" stroke="#323232" stroke-width="1"></path></marker><marker id="SvgjsMarker1742" markerWidth="14" markerHeight="10" refX="10" refY="5" viewBox="0 0 14 10" orient="auto" markerUnits="userSpaceOnUse" stroke-dasharray="0,0"><path id="SvgjsPath1743" d="M0,0 L14,5 L0,10 L0,0" fill="#323232" stroke="#323232" stroke-width="1"></path></marker><marker id="SvgjsMarker1752" markerWidth="14" markerHeight="10" refX="10" refY="5" viewBox="0 0 14 10" orient="auto" markerUnits="userSpaceOnUse" stroke-dasharray="0,0"><path id="SvgjsPath1753" d="M0,0 L14,5 L0,10 L0,0" fill="#323232" stroke="#323232" stroke-width="1"></path></marker></defs><g id="SvgjsG1334" transform="translate(271,405)"><path id="SvgjsPath1335" d="M 0 35C 0 -11.666666666666666 70 -11.666666666666666 70 35C 70 81.66666666666667 0 81.66666666666667 0 35Z" stroke="rgba(50,50,50,1)" stroke-width="2" fill-opacity="1" fill="#ffffff"></path><g id="SvgjsG1336"><text id="SvgjsText1337" font-family="微软雅黑" text-anchor="middle" font-size="13px" width="50px" fill="#323232" font-weight="400" align="middle" lineHeight="125%" anchor="middle" family="微软雅黑" size="13px" weight="400" font-style="" opacity="1" y="24.375" transform="rotate(0)"><tspan id="SvgjsTspan1338" dy="16" x="35"><tspan id="SvgjsTspan1339" style="text-decoration:;">a</tspan></tspan></text></g></g><g id="SvgjsG1340" transform="translate(429,405)"><path id="SvgjsPath1341" d="M 0 35C 0 -11.666666666666666 70 -11.666666666666666 70 35C 70 81.66666666666667 0 81.66666666666667 0 35Z" stroke="rgba(50,50,50,1)" stroke-width="2" fill-opacity="1" fill="#ffffff"></path><g id="SvgjsG1342"><text id="SvgjsText1343" font-family="微软雅黑" text-anchor="middle" font-size="13px" width="50px" fill="#323232" font-weight="400" align="middle" lineHeight="125%" anchor="middle" family="微软雅黑" size="13px" weight="400" font-style="" opacity="1" y="24.375" transform="rotate(0)"><tspan id="SvgjsTspan1344" dy="16" x="35"><tspan id="SvgjsTspan1345" style="text-decoration:;">b</tspan></tspan></text></g></g><g id="SvgjsG1346" transform="translate(587,405)"><path id="SvgjsPath1347" d="M 0 35C 0 -11.666666666666666 70 -11.666666666666666 70 35C 70 81.66666666666667 0 81.66666666666667 0 35Z" stroke="rgba(50,50,50,1)" stroke-width="2" fill-opacity="1" fill="#ffffff"></path><g id="SvgjsG1348"><text id="SvgjsText1349" font-family="微软雅黑" text-anchor="middle" font-size="13px" width="50px" fill="#323232" font-weight="400" align="middle" lineHeight="125%" anchor="middle" family="微软雅黑" size="13px" weight="400" font-style="" opacity="1" y="24.375" transform="rotate(0)"><tspan id="SvgjsTspan1350" dy="16" x="35"><tspan id="SvgjsTspan1351" style="text-decoration:;">c</tspan></tspan></text></g></g><g id="SvgjsG1352" transform="translate(745,405)"><path id="SvgjsPath1353" d="M 0 35C 0 -11.666666666666666 70 -11.666666666666666 70 35C 70 81.66666666666667 0 81.66666666666667 0 35Z" stroke="rgba(50,50,50,1)" stroke-width="2" fill-opacity="1" fill="#ffffff"></path><g id="SvgjsG1354"><text id="SvgjsText1355" font-family="微软雅黑" text-anchor="middle" font-size="13px" width="50px" fill="#323232" font-weight="400" align="middle" lineHeight="125%" anchor="middle" family="微软雅黑" size="13px" weight="400" font-style="" opacity="1" y="24.375" transform="rotate(0)"><tspan id="SvgjsTspan1356" dy="16" x="35"><tspan id="SvgjsTspan1357" style="text-decoration:;">d</tspan></tspan></text></g></g><g id="SvgjsG1358"><path id="SvgjsPath1359" d="M270 440L239 440L239 440L210.6 440" stroke="#323232" stroke-width="2" fill="none" marker-end="url(#SvgjsMarker1360)"></path></g><g id="SvgjsG1362"><path id="SvgjsPath1363" d="M500 440L543 440L543 440L583.4 440" stroke="#323232" stroke-width="2" fill="none" marker-end="url(#SvgjsMarker1364)"></path></g><g id="SvgjsG1366"><path id="SvgjsPath1367" d="M658 440L701 440L701 440L741.4 440" stroke="#323232" stroke-width="2" fill="none" marker-end="url(#SvgjsMarker1368)"></path></g><g id="SvgjsG1370" transform="translate(418.5,327)"><path id="SvgjsPath1371" d="M 0 0L 91 0L 91 21L 0 21Z" stroke="none" fill="none"></path><g id="SvgjsG1372"><text id="SvgjsText1373" font-family="微软雅黑" text-anchor="middle" font-size="13px" width="91px" fill="#323232" font-weight="400" align="middle" lineHeight="125%" anchor="middle" family="微软雅黑" size="13px" weight="400" font-style="" opacity="1" y="-0.125" transform="rotate(0)"><tspan id="SvgjsTspan1374" dy="16" x="45.5"><tspan id="SvgjsTspan1375" style="text-decoration:;">head</tspan></tspan></text></g></g><g id="SvgjsG1376"><path id="SvgjsPath1377" d="M464 349L464 376.5L464 376.5L464 401.4" stroke-dasharray="3,3" stroke="#323232" stroke-width="2" fill="none" marker-end="url(#SvgjsMarker1378)"></path></g><g id="SvgjsG1380" transform="translate(246,532)"><path id="SvgjsPath1381" d="M 0 0L 120 0L 120 40L 0 40Z" stroke="none" fill="none"></path><g id="SvgjsG1382"><text id="SvgjsText1383" font-family="微软雅黑" text-anchor="middle" font-size="13px" width="120px" fill="#323232" font-weight="400" align="middle" lineHeight="125%" anchor="middle" family="微软雅黑" size="13px" weight="400" font-style="" opacity="1" y="9.375" transform="rotate(0)"><tspan id="SvgjsTspan1384" dy="16" x="60"><tspan id="SvgjsTspan1385" style="text-decoration:;">prev</tspan></tspan></text></g></g><g id="SvgjsG1386"><path id="SvgjsPath1387" d="M306 531L306 503.5L306 503.5L306 478.6" stroke-dasharray="3,3" stroke="#323232" stroke-width="2" fill="none" marker-end="url(#SvgjsMarker1388)"></path></g><g id="SvgjsG1390" transform="translate(404,532)"><path id="SvgjsPath1391" d="M 0 0L 120 0L 120 40L 0 40Z" stroke="none" fill="none"></path><g id="SvgjsG1392"><text id="SvgjsText1393" font-family="微软雅黑" text-anchor="middle" font-size="13px" width="120px" fill="#323232" font-weight="400" align="middle" lineHeight="125%" anchor="middle" family="微软雅黑" size="13px" weight="400" font-style="" opacity="1" y="9.375" transform="rotate(0)"><tspan id="SvgjsTspan1394" dy="16" x="60"><tspan id="SvgjsTspan1395" style="text-decoration:;">cur</tspan></tspan></text></g></g><g id="SvgjsG1396"><path id="SvgjsPath1397" d="M464 531L464 503.5L464 503.5L464 478.6" stroke-dasharray="3,3" stroke="#323232" stroke-width="2" fill="none" marker-end="url(#SvgjsMarker1398)"></path></g><g id="SvgjsG1400" transform="translate(562,532)"><path id="SvgjsPath1401" d="M 0 0L 120 0L 120 40L 0 40Z" stroke="none" fill="none"></path><g id="SvgjsG1402"><text id="SvgjsText1403" font-family="微软雅黑" text-anchor="middle" font-size="13px" width="120px" fill="#323232" font-weight="400" align="middle" lineHeight="125%" anchor="middle" family="微软雅黑" size="13px" weight="400" font-style="" opacity="1" y="9.375" transform="rotate(0)"><tspan id="SvgjsTspan1404" dy="16" x="60"><tspan id="SvgjsTspan1405" style="text-decoration:;">next</tspan></tspan></text></g></g><g id="SvgjsG1406"><path id="SvgjsPath1407" d="M622 531L622 503.5L622 503.5L622 478.6" stroke-dasharray="3,3" stroke="#323232" stroke-width="2" fill="none" marker-end="url(#SvgjsMarker1408)"></path></g><g id="SvgjsG1410" transform="translate(903,405)"><path id="SvgjsPath1411" d="M 0 35C 0 -11.666666666666666 70 -11.666666666666666 70 35C 70 81.66666666666667 0 81.66666666666667 0 35Z" stroke="rgba(50,50,50,1)" stroke-width="2" fill-opacity="1" fill="#ffffff"></path><g id="SvgjsG1412"><text id="SvgjsText1413" font-family="微软雅黑" text-anchor="middle" font-size="13px" width="50px" fill="#323232" font-weight="400" align="middle" lineHeight="125%" anchor="middle" family="微软雅黑" size="13px" weight="400" font-style="" opacity="1" y="24.375" transform="rotate(0)"><tspan id="SvgjsTspan1414" dy="16" x="35"><tspan id="SvgjsTspan1415" style="text-decoration:;">e</tspan></tspan></text></g></g><g id="SvgjsG1416"><path id="SvgjsPath1417" d="M816 440L859 440L859 440L899.4 440" stroke="#323232" stroke-width="2" fill="none" marker-end="url(#SvgjsMarker1418)"></path></g><g id="SvgjsG1420" transform="translate(271,664)"><path id="SvgjsPath1421" d="M 0 35C 0 -11.666666666666666 70 -11.666666666666666 70 35C 70 81.66666666666667 0 81.66666666666667 0 35Z" stroke="rgba(50,50,50,1)" stroke-width="2" fill-opacity="1" fill="#ffffff"></path><g id="SvgjsG1422"><text id="SvgjsText1423" font-family="微软雅黑" text-anchor="middle" font-size="13px" width="50px" fill="#323232" font-weight="400" align="middle" lineHeight="125%" anchor="middle" family="微软雅黑" size="13px" weight="400" font-style="" opacity="1" y="24.375" transform="rotate(0)"><tspan id="SvgjsTspan1424" dy="16" x="35"><tspan id="SvgjsTspan1425" style="text-decoration:;">a</tspan></tspan></text></g></g><g id="SvgjsG1426" transform="translate(429,664)"><path id="SvgjsPath1427" d="M 0 35C 0 -11.666666666666666 70 -11.666666666666666 70 35C 70 81.66666666666667 0 81.66666666666667 0 35Z" stroke="rgba(50,50,50,1)" stroke-width="2" fill-opacity="1" fill="#ffffff"></path><g id="SvgjsG1428"><text id="SvgjsText1429" font-family="微软雅黑" text-anchor="middle" font-size="13px" width="50px" fill="#323232" font-weight="400" align="middle" lineHeight="125%" anchor="middle" family="微软雅黑" size="13px" weight="400" font-style="" opacity="1" y="24.375" transform="rotate(0)"><tspan id="SvgjsTspan1430" dy="16" x="35"><tspan id="SvgjsTspan1431" style="text-decoration:;">b</tspan></tspan></text></g></g><g id="SvgjsG1432" transform="translate(587,664)"><path id="SvgjsPath1433" d="M 0 35C 0 -11.666666666666666 70 -11.666666666666666 70 35C 70 81.66666666666667 0 81.66666666666667 0 35Z" stroke="rgba(50,50,50,1)" stroke-width="2" fill-opacity="1" fill="#ffffff"></path><g id="SvgjsG1434"><text id="SvgjsText1435" font-family="微软雅黑" text-anchor="middle" font-size="13px" width="50px" fill="#323232" font-weight="400" align="middle" lineHeight="125%" anchor="middle" family="微软雅黑" size="13px" weight="400" font-style="" opacity="1" y="24.375" transform="rotate(0)"><tspan id="SvgjsTspan1436" dy="16" x="35"><tspan id="SvgjsTspan1437" style="text-decoration:;">c</tspan></tspan></text></g></g><g id="SvgjsG1438" transform="translate(745,664)"><path id="SvgjsPath1439" d="M 0 35C 0 -11.666666666666666 70 -11.666666666666666 70 35C 70 81.66666666666667 0 81.66666666666667 0 35Z" stroke="rgba(50,50,50,1)" stroke-width="2" fill-opacity="1" fill="#ffffff"></path><g id="SvgjsG1440"><text id="SvgjsText1441" font-family="微软雅黑" text-anchor="middle" font-size="13px" width="50px" fill="#323232" font-weight="400" align="middle" lineHeight="125%" anchor="middle" family="微软雅黑" size="13px" weight="400" font-style="" opacity="1" y="24.375" transform="rotate(0)"><tspan id="SvgjsTspan1442" dy="16" x="35"><tspan id="SvgjsTspan1443" style="text-decoration:;">d</tspan></tspan></text></g></g><g id="SvgjsG1444"><path id="SvgjsPath1445" d="M658 699L701 699L701 699L741.4 699" stroke="#323232" stroke-width="2" fill="none" marker-end="url(#SvgjsMarker1446)"></path></g><g id="SvgjsG1448" transform="translate(576.5,586)"><path id="SvgjsPath1449" d="M 0 0L 91 0L 91 21L 0 21Z" stroke="none" fill="none"></path><g id="SvgjsG1450"><text id="SvgjsText1451" font-family="微软雅黑" text-anchor="middle" font-size="13px" width="91px" fill="#323232" font-weight="400" align="middle" lineHeight="125%" anchor="middle" family="微软雅黑" size="13px" weight="400" font-style="" opacity="1" y="-0.125" transform="rotate(0)"><tspan id="SvgjsTspan1452" dy="16" x="45.5"><tspan id="SvgjsTspan1453" style="text-decoration:;">head</tspan></tspan></text></g></g><g id="SvgjsG1454"><path id="SvgjsPath1455" d="M622 608L622 635.5L622 635.5L622 660.4" stroke-dasharray="3,3" stroke="#323232" stroke-width="2" fill="none" marker-end="url(#SvgjsMarker1456)"></path></g><g id="SvgjsG1458" transform="translate(404,804)"><path id="SvgjsPath1459" d="M 0 0L 120 0L 120 40L 0 40Z" stroke="none" fill="none"></path><g id="SvgjsG1460"><text id="SvgjsText1461" font-family="微软雅黑" text-anchor="middle" font-size="13px" width="120px" fill="#323232" font-weight="400" align="middle" lineHeight="125%" anchor="middle" family="微软雅黑" size="13px" weight="400" font-style="" opacity="1" y="9.375" transform="rotate(0)"><tspan id="SvgjsTspan1462" dy="16" x="60"><tspan id="SvgjsTspan1463" style="text-decoration:;">prev</tspan></tspan></text></g></g><g id="SvgjsG1464"><path id="SvgjsPath1465" d="M464 803L464 769L464 769L464 737.6" stroke-dasharray="3,3" stroke="#323232" stroke-width="2" fill="none" marker-end="url(#SvgjsMarker1466)"></path></g><g id="SvgjsG1468" transform="translate(562,804)"><path id="SvgjsPath1469" d="M 0 0L 120 0L 120 40L 0 40Z" stroke="none" fill="none"></path><g id="SvgjsG1470"><text id="SvgjsText1471" font-family="微软雅黑" text-anchor="middle" font-size="13px" width="120px" fill="#323232" font-weight="400" align="middle" lineHeight="125%" anchor="middle" family="微软雅黑" size="13px" weight="400" font-style="" opacity="1" y="9.375" transform="rotate(0)"><tspan id="SvgjsTspan1472" dy="16" x="60"><tspan id="SvgjsTspan1473" style="text-decoration:;">cur</tspan></tspan></text></g></g><g id="SvgjsG1474"><path id="SvgjsPath1475" d="M622 803L622 769L622 769L622 737.6" stroke-dasharray="3,3" stroke="#323232" stroke-width="2" fill="none" marker-end="url(#SvgjsMarker1476)"></path></g><g id="SvgjsG1478" transform="translate(720,804)"><path id="SvgjsPath1479" d="M 0 0L 120 0L 120 40L 0 40Z" stroke="none" fill="none"></path><g id="SvgjsG1480"><text id="SvgjsText1481" font-family="微软雅黑" text-anchor="middle" font-size="13px" width="120px" fill="#323232" font-weight="400" align="middle" lineHeight="125%" anchor="middle" family="微软雅黑" size="13px" weight="400" font-style="" opacity="1" y="9.375" transform="rotate(0)"><tspan id="SvgjsTspan1482" dy="16" x="60"><tspan id="SvgjsTspan1483" style="text-decoration:;">next</tspan></tspan></text></g></g><g id="SvgjsG1484"><path id="SvgjsPath1485" d="M780 803L780 769L780 769L780 737.6" stroke-dasharray="3,3" stroke="#323232" stroke-width="2" fill="none" marker-end="url(#SvgjsMarker1486)"></path></g><g id="SvgjsG1488" transform="translate(903,664)"><path id="SvgjsPath1489" d="M 0 35C 0 -11.666666666666666 70 -11.666666666666666 70 35C 70 81.66666666666667 0 81.66666666666667 0 35Z" stroke="rgba(50,50,50,1)" stroke-width="2" fill-opacity="1" fill="#ffffff"></path><g id="SvgjsG1490"><text id="SvgjsText1491" font-family="微软雅黑" text-anchor="middle" font-size="13px" width="50px" fill="#323232" font-weight="400" align="middle" lineHeight="125%" anchor="middle" family="微软雅黑" size="13px" weight="400" font-style="" opacity="1" y="24.375" transform="rotate(0)"><tspan id="SvgjsTspan1492" dy="16" x="35"><tspan id="SvgjsTspan1493" style="text-decoration:;">e</tspan></tspan></text></g></g><g id="SvgjsG1494"><path id="SvgjsPath1495" d="M816 699L859 699L859 699L899.4 699" stroke="#323232" stroke-width="2" fill="none" marker-end="url(#SvgjsMarker1496)"></path></g><g id="SvgjsG1498"><path id="SvgjsPath1499" d="M428 699L385 699L385 699L344.6 699" stroke="#323232" stroke-width="2" fill="none" marker-end="url(#SvgjsMarker1500)"></path></g><g id="SvgjsG1502"><path id="SvgjsPath1503" d="M974 440L1008.5 440L1008.5 440L1044 440" stroke="#323232" stroke-width="2" fill="none" marker-end="url(#SvgjsMarker1504)"></path></g><g id="SvgjsG1506" transform="translate(1022.5,429.5)"><path id="SvgjsPath1507" d="M 0 0L 91 0L 91 21L 0 21Z" stroke="none" fill="none"></path><g id="SvgjsG1508"><text id="SvgjsText1509" font-family="微软雅黑" text-anchor="middle" font-size="13px" width="91px" fill="#323232" font-weight="400" align="middle" lineHeight="125%" anchor="middle" family="微软雅黑" size="13px" weight="400" font-style="" opacity="1" y="-0.125" transform="rotate(0)"><tspan id="SvgjsTspan1510" dy="16" x="45.5"><tspan id="SvgjsTspan1511" style="text-decoration:;">null</tspan></tspan></text></g></g><g id="SvgjsG1512"><path id="SvgjsPath1513" d="M270 699L242.5 699L242.5 699L214 699" stroke="#323232" stroke-width="2" fill="none" marker-end="url(#SvgjsMarker1514)"></path></g><g id="SvgjsG1516" transform="translate(142.5,688.5)"><path id="SvgjsPath1517" d="M 0 0L 91 0L 91 21L 0 21Z" stroke="none" fill="none"></path><g id="SvgjsG1518"><text id="SvgjsText1519" font-family="微软雅黑" text-anchor="middle" font-size="13px" width="91px" fill="#323232" font-weight="400" align="middle" lineHeight="125%" anchor="middle" family="微软雅黑" size="13px" weight="400" font-style="" opacity="1" y="-0.125" transform="rotate(0)"><tspan id="SvgjsTspan1520" dy="16" x="45.5"><tspan id="SvgjsTspan1521" style="text-decoration:;">null</tspan></tspan></text></g></g><g id="SvgjsG1522" transform="translate(271,103)"><path id="SvgjsPath1523" d="M 0 35C 0 -11.666666666666666 70 -11.666666666666666 70 35C 70 81.66666666666667 0 81.66666666666667 0 35Z" stroke="rgba(50,50,50,1)" stroke-width="2" fill-opacity="1" fill="#ffffff"></path><g id="SvgjsG1524"><text id="SvgjsText1525" font-family="微软雅黑" text-anchor="middle" font-size="13px" width="50px" fill="#323232" font-weight="400" align="middle" lineHeight="125%" anchor="middle" family="微软雅黑" size="13px" weight="400" font-style="" opacity="1" y="24.375" transform="rotate(0)"><tspan id="SvgjsTspan1526" dy="16" x="35"><tspan id="SvgjsTspan1527" style="text-decoration:;">a</tspan></tspan></text></g></g><g id="SvgjsG1528" transform="translate(429,103)"><path id="SvgjsPath1529" d="M 0 35C 0 -11.666666666666666 70 -11.666666666666666 70 35C 70 81.66666666666667 0 81.66666666666667 0 35Z" stroke="rgba(50,50,50,1)" stroke-width="2" fill-opacity="1" fill="#ffffff"></path><g id="SvgjsG1530"><text id="SvgjsText1531" font-family="微软雅黑" text-anchor="middle" font-size="13px" width="50px" fill="#323232" font-weight="400" align="middle" lineHeight="125%" anchor="middle" family="微软雅黑" size="13px" weight="400" font-style="" opacity="1" y="24.375" transform="rotate(0)"><tspan id="SvgjsTspan1532" dy="16" x="35"><tspan id="SvgjsTspan1533" style="text-decoration:;">b</tspan></tspan></text></g></g><g id="SvgjsG1534" transform="translate(587,103)"><path id="SvgjsPath1535" d="M 0 35C 0 -11.666666666666666 70 -11.666666666666666 70 35C 70 81.66666666666667 0 81.66666666666667 0 35Z" stroke="rgba(50,50,50,1)" stroke-width="2" fill-opacity="1" fill="#ffffff"></path><g id="SvgjsG1536"><text id="SvgjsText1537" font-family="微软雅黑" text-anchor="middle" font-size="13px" width="50px" fill="#323232" font-weight="400" align="middle" lineHeight="125%" anchor="middle" family="微软雅黑" size="13px" weight="400" font-style="" opacity="1" y="24.375" transform="rotate(0)"><tspan id="SvgjsTspan1538" dy="16" x="35"><tspan id="SvgjsTspan1539" style="text-decoration:;">c</tspan></tspan></text></g></g><g id="SvgjsG1540" transform="translate(745,103)"><path id="SvgjsPath1541" d="M 0 35C 0 -11.666666666666666 70 -11.666666666666666 70 35C 70 81.66666666666667 0 81.66666666666667 0 35Z" stroke="rgba(50,50,50,1)" stroke-width="2" fill-opacity="1" fill="#ffffff"></path><g id="SvgjsG1542"><text id="SvgjsText1543" font-family="微软雅黑" text-anchor="middle" font-size="13px" width="50px" fill="#323232" font-weight="400" align="middle" lineHeight="125%" anchor="middle" family="微软雅黑" size="13px" weight="400" font-style="" opacity="1" y="24.375" transform="rotate(0)"><tspan id="SvgjsTspan1544" dy="16" x="35"><tspan id="SvgjsTspan1545" style="text-decoration:;">d</tspan></tspan></text></g></g><g id="SvgjsG1546"><path id="SvgjsPath1547" d="M342 138L385 138L385 138L425.4 138" stroke="#323232" stroke-width="2" fill="none" marker-end="url(#SvgjsMarker1548)"></path></g><g id="SvgjsG1550"><path id="SvgjsPath1551" d="M500 138L543 138L543 138L583.4 138" stroke="#323232" stroke-width="2" fill="none" marker-end="url(#SvgjsMarker1552)"></path></g><g id="SvgjsG1554"><path id="SvgjsPath1555" d="M658 138L701 138L701 138L741.4 138" stroke="#323232" stroke-width="2" fill="none" marker-end="url(#SvgjsMarker1556)"></path></g><g id="SvgjsG1558" transform="translate(260.5,25)"><path id="SvgjsPath1559" d="M 0 0L 91 0L 91 21L 0 21Z" stroke="none" fill="none"></path><g id="SvgjsG1560"><text id="SvgjsText1561" font-family="微软雅黑" text-anchor="middle" font-size="13px" width="91px" fill="#323232" font-weight="400" align="middle" lineHeight="125%" anchor="middle" family="微软雅黑" size="13px" weight="400" font-style="" opacity="1" y="-0.125" transform="rotate(0)"><tspan id="SvgjsTspan1562" dy="16" x="45.5"><tspan id="SvgjsTspan1563" style="text-decoration:;">head</tspan></tspan></text></g></g><g id="SvgjsG1564"><path id="SvgjsPath1565" d="M306 47L306 74.5L306 74.5L306 99.4" stroke-dasharray="3,3" stroke="#323232" stroke-width="2" fill="none" marker-end="url(#SvgjsMarker1566)"></path></g><g id="SvgjsG1568" transform="translate(101.5,230)"><path id="SvgjsPath1569" d="M 0 0L 120 0L 120 40L 0 40Z" stroke="none" fill="none"></path><g id="SvgjsG1570"><text id="SvgjsText1571" font-family="微软雅黑" text-anchor="middle" font-size="13px" width="120px" fill="#323232" font-weight="400" align="middle" lineHeight="125%" anchor="middle" family="微软雅黑" size="13px" weight="400" font-style="" opacity="1" y="9.375" transform="rotate(0)"><tspan id="SvgjsTspan1572" dy="16" x="60"><tspan id="SvgjsTspan1573" style="text-decoration:;">prev</tspan></tspan></text></g></g><g id="SvgjsG1574"><path id="SvgjsPath1575" d="M161.5 229L161.5 199.75L161.5 199.75L161.5 169.5" stroke-dasharray="3,3" stroke="#323232" stroke-width="2" fill="none" marker-end="url(#SvgjsMarker1576)"></path></g><g id="SvgjsG1578" transform="translate(246,230)"><path id="SvgjsPath1579" d="M 0 0L 120 0L 120 40L 0 40Z" stroke="none" fill="none"></path><g id="SvgjsG1580"><text id="SvgjsText1581" font-family="微软雅黑" text-anchor="middle" font-size="13px" width="120px" fill="#323232" font-weight="400" align="middle" lineHeight="125%" anchor="middle" family="微软雅黑" size="13px" weight="400" font-style="" opacity="1" y="9.375" transform="rotate(0)"><tspan id="SvgjsTspan1582" dy="16" x="60"><tspan id="SvgjsTspan1583" style="text-decoration:;">cur</tspan></tspan></text></g></g><g id="SvgjsG1584"><path id="SvgjsPath1585" d="M306 229L306 201.5L306 201.5L306 176.6" stroke-dasharray="3,3" stroke="#323232" stroke-width="2" fill="none" marker-end="url(#SvgjsMarker1586)"></path></g><g id="SvgjsG1588" transform="translate(404,234)"><path id="SvgjsPath1589" d="M 0 0L 120 0L 120 40L 0 40Z" stroke="none" fill="none"></path><g id="SvgjsG1590"><text id="SvgjsText1591" font-family="微软雅黑" text-anchor="middle" font-size="13px" width="120px" fill="#323232" font-weight="400" align="middle" lineHeight="125%" anchor="middle" family="微软雅黑" size="13px" weight="400" font-style="" opacity="1" y="9.375" transform="rotate(0)"><tspan id="SvgjsTspan1592" dy="16" x="60"><tspan id="SvgjsTspan1593" style="text-decoration:;">next</tspan></tspan></text></g></g><g id="SvgjsG1594"><path id="SvgjsPath1595" d="M464 233L464 203.5L464 203.5L464 176.6" stroke-dasharray="3,3" stroke="#323232" stroke-width="2" fill="none" marker-end="url(#SvgjsMarker1596)"></path></g><g id="SvgjsG1598" transform="translate(903,103)"><path id="SvgjsPath1599" d="M 0 35C 0 -11.666666666666666 70 -11.666666666666666 70 35C 70 81.66666666666667 0 81.66666666666667 0 35Z" stroke="rgba(50,50,50,1)" stroke-width="2" fill-opacity="1" fill="#ffffff"></path><g id="SvgjsG1600"><text id="SvgjsText1601" font-family="微软雅黑" text-anchor="middle" font-size="13px" width="50px" fill="#323232" font-weight="400" align="middle" lineHeight="125%" anchor="middle" family="微软雅黑" size="13px" weight="400" font-style="" opacity="1" y="24.375" transform="rotate(0)"><tspan id="SvgjsTspan1602" dy="16" x="35"><tspan id="SvgjsTspan1603" style="text-decoration:;">e</tspan></tspan></text></g></g><g id="SvgjsG1604"><path id="SvgjsPath1605" d="M816 138L859 138L859 138L899.4 138" stroke="#323232" stroke-width="2" fill="none" marker-end="url(#SvgjsMarker1606)"></path></g><g id="SvgjsG1608"><path id="SvgjsPath1609" d="M974 138L1008.5 138L1008.5 138L1044 138" stroke="#323232" stroke-width="2" fill="none" marker-end="url(#SvgjsMarker1610)"></path></g><g id="SvgjsG1612" transform="translate(1022.5,127.5)"><path id="SvgjsPath1613" d="M 0 0L 91 0L 91 21L 0 21Z" stroke="none" fill="none"></path><g id="SvgjsG1614"><text id="SvgjsText1615" font-family="微软雅黑" text-anchor="middle" font-size="13px" width="91px" fill="#323232" font-weight="400" align="middle" lineHeight="125%" anchor="middle" family="微软雅黑" size="13px" weight="400" font-style="" opacity="1" y="-0.125" transform="rotate(0)"><tspan id="SvgjsTspan1616" dy="16" x="45.5"><tspan id="SvgjsTspan1617" style="text-decoration:;">null</tspan></tspan></text></g></g><g id="SvgjsG1618" transform="translate(116,127.5)"><path id="SvgjsPath1619" d="M 0 0L 91 0L 91 21L 0 21Z" stroke="none" fill="none"></path><g id="SvgjsG1620"><text id="SvgjsText1621" font-family="微软雅黑" text-anchor="middle" font-size="13px" width="91px" fill="#323232" font-weight="400" align="middle" lineHeight="125%" anchor="middle" family="微软雅黑" size="13px" weight="400" font-style="" opacity="1" y="-0.125" transform="rotate(0)"><tspan id="SvgjsTspan1622" dy="16" x="45.5"><tspan id="SvgjsTspan1623" style="text-decoration:;">null</tspan></tspan></text></g></g><g id="SvgjsG1624" transform="translate(116,429.5)"><path id="SvgjsPath1625" d="M 0 0L 91 0L 91 21L 0 21Z" stroke="none" fill="none"></path><g id="SvgjsG1626"><text id="SvgjsText1627" font-family="微软雅黑" text-anchor="middle" font-size="13px" width="91px" fill="#323232" font-weight="400" align="middle" lineHeight="125%" anchor="middle" family="微软雅黑" size="13px" weight="400" font-style="" opacity="1" y="-0.125" transform="rotate(0)"><tspan id="SvgjsTspan1628" dy="16" x="45.5"><tspan id="SvgjsTspan1629" style="text-decoration:;">null</tspan></tspan></text></g></g><g id="SvgjsG1630"><path id="SvgjsPath1631" d="M974 699L1009.5 699L1009.5 699L1046 699" stroke="#323232" stroke-width="2" fill="none" marker-end="url(#SvgjsMarker1632)"></path></g><g id="SvgjsG1634" transform="translate(1028.5,688.5)"><path id="SvgjsPath1635" d="M 0 0L 91 0L 91 21L 0 21Z" stroke="none" fill="none"></path><g id="SvgjsG1636"><text id="SvgjsText1637" font-family="微软雅黑" text-anchor="middle" font-size="13px" width="91px" fill="#323232" font-weight="400" align="middle" lineHeight="125%" anchor="middle" family="微软雅黑" size="13px" weight="400" font-style="" opacity="1" y="-0.125" transform="rotate(0)"><tspan id="SvgjsTspan1638" dy="16" x="45.5"><tspan id="SvgjsTspan1639" style="text-decoration:;">null</tspan></tspan></text></g></g><g id="SvgjsG1640" transform="translate(25,127.5)"><path id="SvgjsPath1641" d="M 0 0L 91 0L 91 21L 0 21Z" stroke="none" fill="none"></path><g id="SvgjsG1642"><text id="SvgjsText1643" font-family="微软雅黑" text-anchor="middle" font-size="24px" width="91px" fill="#323232" font-weight="400" align="middle" lineHeight="125%" anchor="middle" family="微软雅黑" size="24px" weight="400" font-style="" opacity="1" y="-10.5" transform="rotate(0)"><tspan id="SvgjsTspan1644" dy="30" x="45.5"><tspan id="SvgjsTspan1645" style="text-decoration:;">step1</tspan></tspan></text></g></g><g id="SvgjsG1646" transform="translate(25,429.5)"><path id="SvgjsPath1647" d="M 0 0L 91 0L 91 21L 0 21Z" stroke="none" fill="none"></path><g id="SvgjsG1648"><text id="SvgjsText1649" font-family="微软雅黑" text-anchor="middle" font-size="24px" width="91px" fill="#323232" font-weight="400" align="middle" lineHeight="125%" anchor="middle" family="微软雅黑" size="24px" weight="400" font-style="" opacity="1" y="-10.5" transform="rotate(0)"><tspan id="SvgjsTspan1650" dy="30" x="45.5"><tspan id="SvgjsTspan1651" style="text-decoration:;">step2</tspan></tspan></text></g></g><g id="SvgjsG1652" transform="translate(25,688.5)"><path id="SvgjsPath1653" d="M 0 0L 91 0L 91 21L 0 21Z" stroke="none" fill="none"></path><g id="SvgjsG1654"><text id="SvgjsText1655" font-family="微软雅黑" text-anchor="middle" font-size="24px" width="91px" fill="#323232" font-weight="400" align="middle" lineHeight="125%" anchor="middle" family="微软雅黑" size="24px" weight="400" font-style="" opacity="1" y="-10.5" transform="rotate(0)"><tspan id="SvgjsTspan1656" dy="30" x="45.5"><tspan id="SvgjsTspan1657" style="text-decoration:;">step3</tspan></tspan></text></g></g><g id="SvgjsG1658" transform="translate(271,970)"><path id="SvgjsPath1659" d="M 0 35C 0 -11.666666666666666 70 -11.666666666666666 70 35C 70 81.66666666666667 0 81.66666666666667 0 35Z" stroke="rgba(50,50,50,1)" stroke-width="2" fill-opacity="1" fill="#ffffff"></path><g id="SvgjsG1660"><text id="SvgjsText1661" font-family="微软雅黑" text-anchor="middle" font-size="13px" width="50px" fill="#323232" font-weight="400" align="middle" lineHeight="125%" anchor="middle" family="微软雅黑" size="13px" weight="400" font-style="" opacity="1" y="24.375" transform="rotate(0)"><tspan id="SvgjsTspan1662" dy="16" x="35"><tspan id="SvgjsTspan1663" style="text-decoration:;">a</tspan></tspan></text></g></g><g id="SvgjsG1664" transform="translate(429,970)"><path id="SvgjsPath1665" d="M 0 35C 0 -11.666666666666666 70 -11.666666666666666 70 35C 70 81.66666666666667 0 81.66666666666667 0 35Z" stroke="rgba(50,50,50,1)" stroke-width="2" fill-opacity="1" fill="#ffffff"></path><g id="SvgjsG1666"><text id="SvgjsText1667" font-family="微软雅黑" text-anchor="middle" font-size="13px" width="50px" fill="#323232" font-weight="400" align="middle" lineHeight="125%" anchor="middle" family="微软雅黑" size="13px" weight="400" font-style="" opacity="1" y="24.375" transform="rotate(0)"><tspan id="SvgjsTspan1668" dy="16" x="35"><tspan id="SvgjsTspan1669" style="text-decoration:;">b</tspan></tspan></text></g></g><g id="SvgjsG1670" transform="translate(587,970)"><path id="SvgjsPath1671" d="M 0 35C 0 -11.666666666666666 70 -11.666666666666666 70 35C 70 81.66666666666667 0 81.66666666666667 0 35Z" stroke="rgba(50,50,50,1)" stroke-width="2" fill-opacity="1" fill="#ffffff"></path><g id="SvgjsG1672"><text id="SvgjsText1673" font-family="微软雅黑" text-anchor="middle" font-size="13px" width="50px" fill="#323232" font-weight="400" align="middle" lineHeight="125%" anchor="middle" family="微软雅黑" size="13px" weight="400" font-style="" opacity="1" y="24.375" transform="rotate(0)"><tspan id="SvgjsTspan1674" dy="16" x="35"><tspan id="SvgjsTspan1675" style="text-decoration:;">c</tspan></tspan></text></g></g><g id="SvgjsG1676" transform="translate(745,970)"><path id="SvgjsPath1677" d="M 0 35C 0 -11.666666666666666 70 -11.666666666666666 70 35C 70 81.66666666666667 0 81.66666666666667 0 35Z" stroke="rgba(50,50,50,1)" stroke-width="2" fill-opacity="1" fill="#ffffff"></path><g id="SvgjsG1678"><text id="SvgjsText1679" font-family="微软雅黑" text-anchor="middle" font-size="13px" width="50px" fill="#323232" font-weight="400" align="middle" lineHeight="125%" anchor="middle" family="微软雅黑" size="13px" weight="400" font-style="" opacity="1" y="24.375" transform="rotate(0)"><tspan id="SvgjsTspan1680" dy="16" x="35"><tspan id="SvgjsTspan1681" style="text-decoration:;">d</tspan></tspan></text></g></g><g id="SvgjsG1682"><path id="SvgjsPath1683" d="M586 1005L543 1005L543 1005L502.6 1005" stroke="#323232" stroke-width="2" fill="none" marker-end="url(#SvgjsMarker1684)"></path></g><g id="SvgjsG1686" transform="translate(892.5,892)"><path id="SvgjsPath1687" d="M 0 0L 91 0L 91 21L 0 21Z" stroke="none" fill="none"></path><g id="SvgjsG1688"><text id="SvgjsText1689" font-family="微软雅黑" text-anchor="middle" font-size="13px" width="91px" fill="#323232" font-weight="400" align="middle" lineHeight="125%" anchor="middle" family="微软雅黑" size="13px" weight="400" font-style="" opacity="1" y="-0.125" transform="rotate(0)"><tspan id="SvgjsTspan1690" dy="16" x="45.5"><tspan id="SvgjsTspan1691" style="text-decoration:;">head</tspan></tspan></text></g></g><g id="SvgjsG1692"><path id="SvgjsPath1693" d="M938 914L938 941.5L938 941.5L938 966.4000000000001" stroke-dasharray="3,3" stroke="#323232" stroke-width="2" fill="none" marker-end="url(#SvgjsMarker1694)"></path></g><g id="SvgjsG1696" transform="translate(720,1097)"><path id="SvgjsPath1697" d="M 0 0L 120 0L 120 40L 0 40Z" stroke="none" fill="none"></path><g id="SvgjsG1698"><text id="SvgjsText1699" font-family="微软雅黑" text-anchor="middle" font-size="13px" width="120px" fill="#323232" font-weight="400" align="middle" lineHeight="125%" anchor="middle" family="微软雅黑" size="13px" weight="400" font-style="" opacity="1" y="9.375" transform="rotate(0)"><tspan id="SvgjsTspan1700" dy="16" x="60"><tspan id="SvgjsTspan1701" style="text-decoration:;">prev</tspan></tspan></text></g></g><g id="SvgjsG1702"><path id="SvgjsPath1703" d="M780 1096L780 1068.5L780 1068.5L780 1043.6" stroke-dasharray="3,3" stroke="#323232" stroke-width="2" fill="none" marker-end="url(#SvgjsMarker1704)"></path></g><g id="SvgjsG1706" transform="translate(878,1097)"><path id="SvgjsPath1707" d="M 0 0L 120 0L 120 40L 0 40Z" stroke="none" fill="none"></path><g id="SvgjsG1708"><text id="SvgjsText1709" font-family="微软雅黑" text-anchor="middle" font-size="13px" width="120px" fill="#323232" font-weight="400" align="middle" lineHeight="125%" anchor="middle" family="微软雅黑" size="13px" weight="400" font-style="" opacity="1" y="9.375" transform="rotate(0)"><tspan id="SvgjsTspan1710" dy="16" x="60"><tspan id="SvgjsTspan1711" style="text-decoration:;">cur</tspan></tspan></text></g></g><g id="SvgjsG1712"><path id="SvgjsPath1713" d="M938 1096L938 1068.5L938 1068.5L938 1043.6" stroke-dasharray="3,3" stroke="#323232" stroke-width="2" fill="none" marker-end="url(#SvgjsMarker1714)"></path></g><g id="SvgjsG1716" transform="translate(999.5,1097)"><path id="SvgjsPath1717" d="M 0 0L 120 0L 120 40L 0 40Z" stroke="none" fill="none"></path><g id="SvgjsG1718"><text id="SvgjsText1719" font-family="微软雅黑" text-anchor="middle" font-size="13px" width="120px" fill="#323232" font-weight="400" align="middle" lineHeight="125%" anchor="middle" family="微软雅黑" size="13px" weight="400" font-style="" opacity="1" y="9.375" transform="rotate(0)"><tspan id="SvgjsTspan1720" dy="16" x="60"><tspan id="SvgjsTspan1721" style="text-decoration:;">next</tspan></tspan></text></g></g><g id="SvgjsG1722"><path id="SvgjsPath1723" d="M1059.5 1096L1059.5 1068.5L1059.5 1068.5L1059.5 1040" stroke-dasharray="3,3" stroke="#323232" stroke-width="2" fill="none" marker-end="url(#SvgjsMarker1724)"></path></g><g id="SvgjsG1726" transform="translate(903,970)"><path id="SvgjsPath1727" d="M 0 35C 0 -11.666666666666666 70 -11.666666666666666 70 35C 70 81.66666666666667 0 81.66666666666667 0 35Z" stroke="rgba(50,50,50,1)" stroke-width="2" fill-opacity="1" fill="#ffffff"></path><g id="SvgjsG1728"><text id="SvgjsText1729" font-family="微软雅黑" text-anchor="middle" font-size="13px" width="50px" fill="#323232" font-weight="400" align="middle" lineHeight="125%" anchor="middle" family="微软雅黑" size="13px" weight="400" font-style="" opacity="1" y="24.375" transform="rotate(0)"><tspan id="SvgjsTspan1730" dy="16" x="35"><tspan id="SvgjsTspan1731" style="text-decoration:;">e</tspan></tspan></text></g></g><g id="SvgjsG1732"><path id="SvgjsPath1733" d="M744 1005L701 1005L701 1005L660.6 1005" stroke="#323232" stroke-width="2" fill="none" marker-end="url(#SvgjsMarker1734)"></path></g><g id="SvgjsG1736"><path id="SvgjsPath1737" d="M428 1005L385 1005L385 1005L344.6 1005" stroke="#323232" stroke-width="2" fill="none" marker-end="url(#SvgjsMarker1738)"></path></g><g id="SvgjsG1740"><path id="SvgjsPath1741" d="M270 1005L242.5 1005L242.5 1005L214 1005" stroke="#323232" stroke-width="2" fill="none" marker-end="url(#SvgjsMarker1742)"></path></g><g id="SvgjsG1744" transform="translate(142.5,994.5)"><path id="SvgjsPath1745" d="M 0 0L 91 0L 91 21L 0 21Z" stroke="none" fill="none"></path><g id="SvgjsG1746"><text id="SvgjsText1747" font-family="微软雅黑" text-anchor="middle" font-size="13px" width="91px" fill="#323232" font-weight="400" align="middle" lineHeight="125%" anchor="middle" family="微软雅黑" size="13px" weight="400" font-style="" opacity="1" y="-0.125" transform="rotate(0)"><tspan id="SvgjsTspan1748" dy="16" x="45.5"><tspan id="SvgjsTspan1749" style="text-decoration:;">null</tspan></tspan></text></g></g><g id="SvgjsG1750"><path id="SvgjsPath1751" d="M902 1005L859 1005L859 1005L818.6 1005" stroke="#323232" stroke-width="2" fill="none" marker-end="url(#SvgjsMarker1752)"></path></g><g id="SvgjsG1754" transform="translate(25,994.5)"><path id="SvgjsPath1755" d="M 0 0L 91 0L 91 21L 0 21Z" stroke="none" fill="none"></path><g id="SvgjsG1756"><text id="SvgjsText1757" font-family="微软雅黑" text-anchor="middle" font-size="24px" width="91px" fill="#323232" font-weight="400" align="middle" lineHeight="125%" anchor="middle" family="微软雅黑" size="24px" weight="400" font-style="" opacity="1" y="-10.5" transform="rotate(0)"><tspan id="SvgjsTspan1758" dy="30" x="45.5"><tspan id="SvgjsTspan1759" style="text-decoration:;">stepn</tspan></tspan></text></g></g></svg>